<svg width="77" height="78" viewBox="0 0 77 78" fill="none" xmlns="http://www.w3.org/2000/svg">
<path d="M27.3182 67.0603C27.069 67.437 26.9796 67.8973 27.0697 68.3399C27.1599 68.7825 27.4222 69.1712 27.7989 69.4204C28.1756 69.6696 28.6359 69.759 29.0785 69.6689C29.5211 69.5787 29.9098 69.3164 30.159 68.9397C30.159 68.9397 30.159 68.9397 30.159 68.9397C32.6593 65.1351 34.7213 61.1424 36.6305 57.1013C39.0338 51.9821 41.1492 46.7552 43.0659 41.4585C43.1103 41.3358 43.1545 41.213 43.1987 41.09C46.3276 31.9896 47.3087 22.2787 44.9123 12.6606C44.8391 12.4185 44.7476 12.1487 44.6552 11.9074C44.0449 10.3913 42.9035 9.75279 41.9697 9.26075C41.7019 9.1268 41.4335 9.01021 41.1651 8.90615C40.095 8.49932 38.9949 8.38383 37.83 8.60805C37.477 8.68035 37.1156 8.79183 36.7515 8.97062C32.8736 11.0155 32.7353 15.3548 32.8677 18.3738C33.0715 21.5937 33.831 24.6411 34.7665 27.5934C36.7063 33.4837 39.2927 39.0867 42.9707 44.2127C42.9715 44.2137 42.9723 44.2148 42.9731 44.2158C46.1888 48.3613 51.1928 48.4812 54.9297 49.2476C54.9385 49.2492 54.9472 49.2507 54.956 49.2523C58.7276 50.0062 62.3489 48.1682 65.0092 46.6625C65.0204 46.6566 65.0315 46.6507 65.0426 46.6448C66.4286 45.8046 67.9037 45.1463 68.6101 42.8272C68.6102 42.8268 68.6103 42.8264 68.6104 42.826C68.9617 40.4771 67.4896 39.3108 66.4786 38.464C66.4727 38.4594 66.4667 38.4548 66.4608 38.4503C55.9103 34.2047 47.5697 39.6128 39.0501 42.2837C39.0127 42.2983 38.9754 42.3129 38.9381 42.3275C29.9469 45.7581 20.9738 49.6132 11.6384 49.5089C11.6139 49.5088 11.5893 49.5087 11.5648 49.5086C11.5718 49.507 11.673 49.5234 11.7477 49.5742C11.8243 49.6235 11.8411 49.6677 11.8194 49.6386C11.7717 49.5846 11.667 49.3098 11.6158 48.9964C11.5033 48.3515 11.5047 47.5509 11.5559 46.7297C11.5569 46.7123 11.5581 46.6948 11.5594 46.6772C11.9131 43.6058 14.5107 40.2944 16.7877 37.2677C16.7967 37.2561 16.8056 37.2445 16.8145 37.2329C18.5327 34.9939 21.894 33.9123 25.1561 33.0663C25.1928 33.057 25.2295 33.0477 25.2663 33.0384C27.9287 32.3066 30.667 33.5516 32.5866 35.7137C32.6094 35.739 32.6319 35.7642 32.6541 35.7893C37.8452 41.7032 37.2248 50.0608 40.5344 58.7653C40.581 58.8425 40.6317 58.9168 40.6878 58.9894C41.4711 59.9605 42.5281 59.9639 43.1049 59.9191C43.7376 59.8583 44.2302 59.6935 44.6953 59.5081C45.3005 59.2606 45.8356 58.9599 46.3426 58.6246C46.3819 58.5986 46.4211 58.5721 46.4601 58.5453C48.5913 57.0016 49.1876 54.5406 50.6548 52.8439C50.6667 52.8299 50.6785 52.8159 50.6904 52.8021C51.739 51.5867 52.7577 50.3373 53.7502 49.0807C53.813 49.0016 53.8418 48.9007 53.8303 48.8004C53.8188 48.7 53.7679 48.6084 53.6888 48.5456C53.6096 48.4828 53.5088 48.454 53.4085 48.4655C53.3081 48.477 53.2165 48.5279 53.1537 48.6071C53.1537 48.6071 53.1537 48.6071 53.1537 48.6071C52.1614 49.8633 51.156 51.0962 50.1129 52.3055C50.1011 52.3192 50.0892 52.3329 50.0771 52.3467C48.6109 54.0116 46.271 54.9889 44.7549 56.0582C44.7279 56.0767 44.7013 56.0946 44.675 56.1121C44.3078 56.3558 43.925 56.5667 43.5584 56.7165C43.2831 56.8304 43.0054 56.905 42.8393 56.9183C42.7593 56.9269 42.7133 56.9144 42.7582 56.9243C42.7961 56.9299 42.9651 57.0046 43.0699 57.1465C43.0865 57.1679 43.101 57.1892 43.1136 57.2101C40.5324 50.6536 41.0029 40.7702 34.9365 33.7709C34.9078 33.7385 34.8788 33.706 34.8495 33.6734C32.4931 30.9363 28.3393 29.0961 24.5433 30.1811C24.5048 30.1909 24.4664 30.2006 24.4281 30.2104C21.0505 31.143 17.1541 32.0335 14.4284 35.3922C14.4192 35.4041 14.4101 35.4159 14.4009 35.4278C12.0856 38.6348 9.24726 41.6171 8.54059 46.4502C8.53834 46.4799 8.53625 46.5096 8.53434 46.5393C8.47947 47.445 8.42065 48.3875 8.56016 49.4606C8.64205 50.0003 8.7457 50.5865 9.14761 51.2769C9.48982 51.9714 10.6249 52.7259 11.5354 52.6681C11.5619 52.6684 11.5884 52.6687 11.6149 52.669C21.8259 52.8159 31.158 48.8264 40.1448 45.4165C40.1822 45.4019 40.2197 45.3873 40.2572 45.3726C48.195 42.5134 58.0894 38.1324 64.5481 40.9561C64.5513 40.9585 64.5545 40.961 64.5577 40.9634C64.8605 41.1945 65.1125 41.5064 65.2325 41.7595C65.3613 42.0255 65.3139 42.135 65.3135 42.1229C65.3134 42.1229 65.3134 42.1229 65.3134 42.1229C65.3119 42.4066 64.525 43.5737 63.6375 44.0097C63.6307 44.0133 63.6239 44.0169 63.6171 44.0205C60.7967 45.6068 58.1624 46.6134 55.5225 46.0937C55.5163 46.0926 55.51 46.0915 55.5037 46.0903C51.5008 45.3808 47.3886 44.9559 45.4973 42.3422C45.4966 42.3413 45.4959 42.3403 45.4952 42.3394C42.1082 37.6762 39.5207 32.2105 37.6708 26.6554C36.0197 21.4663 34.2995 13.8788 38.0756 11.6584C38.164 11.6145 38.2872 11.5723 38.428 11.5438C38.8999 11.4448 39.526 11.5295 39.9989 11.7484C40.1846 11.8307 40.3637 11.9195 40.5313 12.013C41.1462 12.3398 41.5521 12.8319 41.5655 13.0126C41.6263 13.1987 41.6929 13.4146 41.7517 13.6122C43.8382 22.0176 42.9239 31.5828 39.9931 39.9383C39.9496 40.0593 39.906 40.1802 39.8624 40.3009C37.9771 45.5112 35.8956 50.6517 33.548 55.6518C31.687 59.5944 29.6695 63.4852 27.3182 67.0603Z" fill="black"/>
</svg>
