<svg width="79" height="79" viewBox="0 0 79 79" fill="none" xmlns="http://www.w3.org/2000/svg">
<path d="M17.9725 74.0625H57.6848C61.9212 74.0625 65.3528 70.626 65.3528 66.3896V34.1379C72.2998 33.6392 76.393 25.8626 72.6356 19.7944L70.4877 16.3283C69.6464 14.9653 68.47 13.8403 67.0707 13.0607C65.6714 12.2811 64.0958 11.8728 62.4939 11.8747H56.6874V9.48988C56.6887 8.8921 56.572 8.29995 56.344 7.74736C56.116 7.19478 55.7812 6.69263 55.3587 6.26971C54.9363 5.84679 54.4345 5.51141 53.8821 5.2828C53.3298 5.05419 52.7378 4.93685 52.14 4.9375C49.2774 4.9375 46.5321 6.07466 44.5079 8.09881C42.4838 10.123 41.3466 12.8683 41.3466 15.7309V30.2274C35.9351 30.8347 31.8173 33.4466 28.7955 37.0806C25.3985 41.159 23.4136 46.4569 22.2286 51.5179C21.2151 56.0843 20.6365 60.7365 20.5005 65.412C20.4511 66.8538 20.4511 68.1178 20.461 69.125H17.9774C16.3973 69.1252 14.8515 68.6636 13.5302 67.797C12.2089 66.9305 11.1696 65.6967 10.5401 64.2473C9.91068 62.798 9.71846 61.1962 9.98714 59.6391C10.2558 58.082 10.9737 56.6373 12.0524 55.4827L15.9876 51.2611C18.7592 48.2888 20.269 44.3567 20.199 40.2932C20.129 36.2297 18.4847 32.352 15.6124 29.4769L11.7513 25.6108C11.5235 25.375 11.2511 25.1869 10.9499 25.0576C10.6487 24.9282 10.3248 24.8601 9.99696 24.8572C9.66916 24.8544 9.34408 24.9168 9.04068 25.041C8.73728 25.1651 8.46164 25.3484 8.22984 25.5802C7.99804 25.812 7.81473 26.0877 7.6906 26.3911C7.56647 26.6945 7.504 27.0195 7.50685 27.3473C7.5097 27.6751 7.57781 27.9991 7.70719 28.3003C7.83657 28.6015 8.02465 28.8739 8.26044 29.1016L12.1265 32.9677C14.0954 34.9372 15.2226 37.5943 15.2705 40.3788C15.3184 43.1633 14.2833 45.8577 12.3833 47.8938L8.44313 52.1153C6.71103 53.9738 5.55904 56.2974 5.1285 58.8011C4.69796 61.3048 5.00758 63.8798 6.01939 66.2101C7.03119 68.5404 8.70118 70.5247 10.8245 71.9195C12.9478 73.3144 15.432 74.0592 17.9725 74.0625ZM51.7499 9.88982V14.3434C51.7499 14.9982 52.01 15.6261 52.473 16.0891C52.936 16.5521 53.5639 16.8122 54.2187 16.8122H62.4939C64.0394 16.8122 65.4762 17.6121 66.2958 18.9304L68.4436 22.3965C68.8648 23.0737 69.0971 23.8512 69.1165 24.6484C69.1358 25.4457 68.9414 26.2335 68.5534 26.9303C68.1655 27.627 67.5982 28.2073 66.9104 28.6108C66.2225 29.0143 65.4392 29.2264 64.6418 29.2251H62.8889C62.2342 29.2251 61.6063 29.4852 61.1433 29.9481C60.6803 30.4111 60.4202 31.0391 60.4202 31.6938V66.3896C60.4202 67.1151 60.132 67.8109 59.619 68.3238C59.106 68.8368 58.4103 69.125 57.6848 69.125H54.9544V66.3896C54.955 64.6988 54.6226 63.0245 53.976 61.4622C53.3294 59.8999 52.3813 58.4803 51.186 57.2845C49.9906 56.0887 48.5714 55.1401 47.0094 54.4929C45.4473 53.8457 43.7731 53.5126 42.0823 53.5126H37.7472C37.0924 53.5126 36.4645 53.7727 36.0015 54.2357C35.5385 54.6987 35.2784 55.3266 35.2784 55.9814C35.2784 56.6361 35.5385 57.2641 36.0015 57.727C36.4645 58.19 37.0924 58.4501 37.7472 58.4501H42.0823C46.4619 58.4501 50.0169 62.0051 50.0169 66.3896V69.125H25.3985C25.3837 68.1721 25.3886 66.9673 25.4331 65.5749C25.5516 62.0101 25.9515 57.3046 27.0378 52.6387C28.1339 47.9382 29.8867 43.4796 32.5875 40.2406C35.2093 37.0905 38.7594 35.0316 43.8154 35.0316C44.4701 35.0316 45.0981 34.7715 45.561 34.3085C46.024 33.8455 46.2841 33.2176 46.2841 32.5628V15.7309C46.2841 12.6301 48.6986 10.0873 51.7499 9.88982Z" fill="black"/>
<path d="M30.526 15.2493C30.6604 15.0071 30.7309 14.7347 30.7309 14.4578C30.7309 14.1809 30.6604 13.9085 30.526 13.6663C30.3668 13.4006 30.1422 13.1801 29.8735 13.0259L27.1185 11.6726L29.8977 10.2468C30.1617 10.1122 30.3833 9.90729 30.5381 9.65467C30.6952 9.39609 30.7798 9.09884 30.7798 8.79676C30.7798 8.49709 30.6952 8.20467 30.5381 7.95092C30.3818 7.68776 30.1504 7.47736 29.8735 7.34676L20.2069 2.61009C19.9855 2.49948 19.7414 2.44189 19.494 2.44189C19.2465 2.44189 19.0024 2.49948 18.781 2.61009L9.11438 7.35884C8.84585 7.49695 8.62021 7.70587 8.46188 7.96301C8.3046 8.2171 8.22128 8.51001 8.22128 8.80884C8.22128 9.10767 8.3046 9.40058 8.46188 9.65467C8.61171 9.91326 8.83405 10.1235 9.1023 10.2588L11.8573 11.6726L9.1023 12.9897C8.83712 13.128 8.61545 13.3372 8.46188 13.5938C8.3046 13.8479 8.22128 14.1408 8.22128 14.4397C8.22128 14.7385 8.3046 15.0314 8.46188 15.2855C8.61171 15.5441 8.83405 15.7543 9.1023 15.8897L11.8573 17.3034L9.1023 18.6205C8.83712 18.7589 8.61545 18.968 8.46188 19.2247C8.3046 19.4788 8.22128 19.7717 8.22128 20.0705C8.22128 20.3693 8.3046 20.6622 8.46188 20.9163C8.61534 21.1725 8.83646 21.3815 9.1023 21.5205L18.769 26.3538C18.9998 26.4868 19.262 26.558 19.5302 26.5593C19.7888 26.5617 20.0432 26.4949 20.2673 26.3659L30.0065 21.4238C30.362 21.2033 30.6192 20.8546 30.7249 20.4498C30.8306 20.045 30.7767 19.615 30.5744 19.2488C30.4152 18.9831 30.1905 18.7626 29.9219 18.6084L27.1548 17.2551L30.0065 15.793C30.2183 15.653 30.3958 15.4672 30.526 15.2493ZM19.4819 19.1884L14.3344 16.5663L14.1048 16.4576L10.214 14.4518L13.839 12.6997L18.6723 15.2009C18.9043 15.3302 19.1677 15.3967 19.4335 15.3943C19.6912 15.4022 19.9461 15.3395 20.1706 15.213L25.004 12.7118L28.629 14.4638L19.4819 19.1884Z" fill="#101010"/>
</svg>
