<svg width="185" height="150" viewBox="0 0 185 150" fill="none" xmlns="http://www.w3.org/2000/svg">
<g clip-path="url(#clip0_136_54)">
<path d="M131.135 14.2412C95.9912 9.37731 79.1386 25.6541 75.6059 48.4118C73.63 61.1342 80.2603 73.3098 91.8783 81.8151C97.3892 87.0331 88.048 100.203 81.6823 102.995C81.6823 102.995 102.548 104.551 110.333 90.8051C113.412 91.7172 116.613 92.4199 119.93 92.8957C147.328 96.825 171.552 85.4451 174.822 62.6414C178.093 39.8377 166.617 19.1536 131.135 14.2412Z" fill="white" stroke="black" stroke-width="0.75" stroke-miterlimit="10" stroke-linejoin="round"/>
<path d="M95.8112 43.9445L94.2192 43.8701C94.186 43.6069 94.1131 43.3717 94.0005 43.1645C93.888 42.9545 93.7443 42.7743 93.5693 42.6239C93.3943 42.4735 93.1921 42.3574 92.9627 42.2756C92.7363 42.1911 92.4897 42.1426 92.223 42.1301C91.7491 42.1079 91.3235 42.2075 90.9463 42.4288C90.5692 42.6472 90.2664 42.98 90.0379 43.4272C89.8095 43.8716 89.68 44.4215 89.6493 45.0771C89.6181 45.7439 89.6955 46.3107 89.8813 46.7772C90.07 47.2411 90.3406 47.5979 90.693 47.8476C91.0483 48.0945 91.4615 48.229 91.9326 48.2511C92.1937 48.2633 92.4393 48.2406 92.6695 48.1831C92.9027 48.1229 93.1133 48.029 93.3013 47.9012C93.4921 47.7736 93.6546 47.6134 93.7887 47.4206C93.9257 47.228 94.0243 47.0051 94.0845 46.7519L95.6761 46.8348C95.5971 47.2464 95.4498 47.6291 95.2342 47.9831C95.0214 48.3372 94.7496 48.6458 94.4188 48.9091C94.0881 49.1695 93.7062 49.3678 93.2733 49.504C92.8404 49.6373 92.3643 49.6918 91.845 49.6676C91.0788 49.6317 90.4032 49.4224 89.8182 49.0395C89.2331 48.6567 88.7832 48.1223 88.4683 47.4364C88.1534 46.7505 88.0178 45.9393 88.0616 45.0028C88.1055 44.0635 88.3175 43.2686 88.6978 42.618C89.0781 41.9646 89.5774 41.4746 90.1956 41.148C90.8138 40.8214 91.5032 40.6759 92.2637 40.7114C92.749 40.7341 93.197 40.8233 93.6078 40.979C94.0186 41.1347 94.381 41.3522 94.695 41.6314C95.0091 41.9077 95.2623 42.2409 95.4545 42.631C95.6497 43.0184 95.7686 43.4562 95.8112 43.9445ZM98.5081 41.1228L98.1006 49.8405L96.5597 49.7685L96.9672 41.0508L98.5081 41.1228ZM99.3256 49.8978L99.6312 43.3595L101.172 43.4315L100.866 49.9698L99.3256 49.8978ZM100.449 42.4677C100.205 42.4563 99.999 42.3656 99.8307 42.1957C99.6624 42.0228 99.5837 41.8215 99.5944 41.5916C99.6053 41.3589 99.7025 41.1658 99.886 41.0123C100.07 40.8559 100.283 40.7834 100.528 40.7949C100.774 40.8064 100.981 40.8985 101.146 41.0712C101.314 41.2412 101.393 41.4425 101.382 41.6752C101.371 41.9051 101.274 42.0982 101.091 42.2546C100.91 42.4082 100.696 42.4793 100.449 42.4677ZM104.937 50.2881C104.285 50.2576 103.731 50.0881 103.276 49.7796C102.824 49.4712 102.484 49.0586 102.255 48.5416C102.029 48.022 101.931 47.4316 101.962 46.7704C101.993 46.1063 102.148 45.5263 102.427 45.0302C102.707 44.5314 103.086 44.1509 103.564 43.8889C104.046 43.6242 104.606 43.5067 105.245 43.5366C105.775 43.5614 106.24 43.6813 106.64 43.8962C107.042 44.1084 107.357 44.3975 107.585 44.7637C107.812 45.127 107.932 45.545 107.944 46.0176L106.471 45.9488C106.426 45.631 106.297 45.3619 106.082 45.1414C105.871 44.9182 105.579 44.7979 105.208 44.7805C104.893 44.7658 104.612 44.838 104.366 44.9971C104.12 45.1534 103.922 45.386 103.774 45.6947C103.629 46.0036 103.546 46.378 103.526 46.8179C103.505 47.2634 103.552 47.6495 103.668 47.9763C103.783 48.3003 103.955 48.5543 104.182 48.7384C104.413 48.9198 104.688 49.018 105.009 49.033C105.236 49.0436 105.441 49.0105 105.624 48.9338C105.809 48.8543 105.967 48.7351 106.097 48.5762C106.227 48.4173 106.32 48.2212 106.376 47.9877L107.849 48.0566C107.79 48.5174 107.635 48.9211 107.383 49.2677C107.131 49.6114 106.797 49.8745 106.382 50.057C105.967 50.2367 105.485 50.3137 104.937 50.2881ZM110.151 48.3476L110.233 46.4873L110.48 46.4988L112.953 43.9823L114.753 44.0664L111.713 47.1494L111.393 47.1345L110.151 48.3476ZM108.65 50.3337L109.058 41.616L110.599 41.688L110.191 50.4058L108.65 50.3337ZM112.754 50.5255L110.764 47.4506L111.854 46.4137L114.597 50.6117L112.754 50.5255ZM117.759 43.3495L117.821 42.0257L124.777 42.3508L124.715 43.6747L122.02 43.5487L121.675 50.9426L120.108 50.8694L120.454 43.4755L117.759 43.3495ZM127.18 51.328C126.542 51.2981 125.995 51.1318 125.54 50.8289C125.085 50.5261 124.74 50.1161 124.505 49.5989C124.273 49.0818 124.173 48.4856 124.205 47.8102C124.236 47.1348 124.392 46.5491 124.671 46.053C124.953 45.5571 125.335 45.1797 125.816 44.9206C126.297 44.6616 126.857 44.547 127.496 44.5768C128.134 44.6067 128.681 44.773 129.136 45.0758C129.591 45.3787 129.935 45.79 130.166 46.3099C130.401 46.83 130.502 47.4277 130.471 48.1031C130.439 48.7785 130.282 49.3627 130.001 49.8558C129.722 50.349 129.341 50.7251 128.86 50.9841C128.379 51.2432 127.819 51.3578 127.18 51.328ZM127.246 50.0939C127.593 50.1101 127.887 50.0286 128.128 49.8493C128.37 49.6672 128.555 49.4171 128.684 49.0989C128.815 48.7808 128.89 48.4231 128.909 48.0258C128.927 47.6257 128.886 47.2611 128.785 46.9322C128.687 46.6005 128.526 46.3328 128.302 46.1289C128.078 45.9251 127.793 45.8151 127.447 45.7989C127.092 45.7823 126.793 45.865 126.548 46.0469C126.307 46.229 126.12 46.4805 125.988 46.8014C125.86 47.1197 125.786 47.4788 125.767 47.879C125.749 48.2762 125.789 48.6393 125.887 48.9681C125.988 49.2971 126.151 49.5635 126.374 49.7673C126.601 49.9685 126.892 50.0773 127.246 50.0939ZM135.523 42.8532L137.471 49.8211L137.561 49.8253L140.146 43.0693L141.883 43.1505L138.402 51.7246L136.452 51.6334L133.791 42.7722L135.523 42.8532ZM142.196 51.9019L142.501 45.3636L144.042 45.4356L143.737 51.974L142.196 51.9019ZM143.319 44.4719C143.075 44.4605 142.869 44.3698 142.701 44.1998C142.532 44.027 142.454 43.8256 142.464 43.5958C142.475 43.3631 142.573 43.1699 142.756 43.0164C142.94 42.86 143.154 42.7876 143.398 42.799C143.644 42.8105 143.851 42.9026 144.016 43.0753C144.184 43.2453 144.263 43.4466 144.252 43.6793C144.242 43.9092 144.144 44.1023 143.961 44.2587C143.78 44.4123 143.566 44.4834 143.319 44.4719ZM147.85 52.2942C147.195 52.2636 146.635 52.1009 146.171 51.8062C145.71 51.5088 145.363 51.103 145.131 50.5887C144.9 50.0716 144.8 49.4712 144.832 48.7872C144.863 48.1147 145.018 47.5304 145.297 47.0344C145.58 46.5356 145.959 46.1552 146.434 45.893C146.91 45.628 147.461 45.5101 148.085 45.5393C148.488 45.5582 148.865 45.6412 149.216 45.7885C149.571 45.933 149.879 46.1465 150.142 46.429C150.408 46.7116 150.61 47.0652 150.749 47.4897C150.889 47.9115 150.945 48.409 150.919 48.9822L150.897 49.4547L145.537 49.2042L145.586 48.1655L149.468 48.347C149.479 48.0518 149.427 47.7863 149.313 47.5506C149.199 47.312 149.033 47.1208 148.815 46.977C148.6 46.8333 148.345 46.7545 148.05 46.7407C147.735 46.726 147.455 46.7897 147.209 46.9318C146.964 47.071 146.769 47.261 146.624 47.5016C146.482 47.7396 146.403 48.0046 146.386 48.2968L146.344 49.2035C146.326 49.5837 146.38 49.9133 146.506 50.1923C146.633 50.4684 146.818 50.6846 147.061 50.841C147.304 50.9946 147.593 51.0792 147.927 51.0948C148.152 51.1053 148.356 51.0836 148.541 51.0297C148.725 50.9729 148.887 50.8852 149.026 50.7665C149.166 50.6479 149.274 50.498 149.35 50.3167L150.782 50.5457C150.673 50.9217 150.484 51.2457 150.216 51.5175C149.95 51.7866 149.616 51.99 149.214 52.1277C148.813 52.2625 148.358 52.318 147.85 52.2942ZM153.022 52.408L151.48 45.7834L153.051 45.8568L153.985 50.5078L154.045 50.5105L155.434 45.9682L156.988 46.0409L157.949 50.6675L158.013 50.6705L159.359 46.1517L160.934 46.2253L158.777 52.6771L157.172 52.602L156.153 48.1263L156.063 48.1221L154.631 52.4832L153.022 52.408ZM92.8935 58.2785C92.8711 57.9049 92.7172 57.6076 92.4318 57.3866C92.1492 57.1658 91.7738 57.0444 91.3055 57.0225C90.9763 57.0072 90.6917 57.0436 90.4515 57.1319C90.2113 57.2202 90.0248 57.3466 89.892 57.511C89.7591 57.6755 89.6862 57.8669 89.6732 58.0853C89.6647 58.2669 89.6984 58.4263 89.7745 58.5635C89.8534 58.7009 89.963 58.8198 90.1034 58.9202C90.2439 59.0178 90.4006 59.1019 90.5736 59.1725C90.7467 59.2432 90.9216 59.304 91.0984 59.3549L91.9061 59.5974C92.2317 59.6894 92.5433 59.8078 92.8408 59.9525C93.1412 60.0974 93.4074 60.2748 93.6393 60.4847C93.8741 60.6948 94.0558 60.9436 94.1846 61.2312C94.3133 61.5188 94.3689 61.8513 94.3512 62.2287C94.3274 62.7395 94.1758 63.1832 93.8965 63.5598C93.6174 63.9335 93.2259 64.2181 92.7219 64.4135C92.2209 64.6062 91.6213 64.6863 90.9232 64.6536C90.245 64.6219 89.661 64.4894 89.1714 64.2561C88.6846 64.0228 88.3101 63.6982 88.048 63.2821C87.7888 62.8661 87.6613 62.3681 87.6657 61.7882L89.2194 61.8608C89.2279 62.1655 89.3097 62.4224 89.4649 62.6316C89.6201 62.8408 89.8273 63.0012 90.0866 63.1129C90.3487 63.2247 90.6443 63.2883 90.9735 63.3037C91.3169 63.3197 91.6201 63.2827 91.8831 63.1926C92.1491 63.0998 92.3602 62.9646 92.5164 62.7871C92.6727 62.6067 92.7581 62.3917 92.7726 62.1421C92.7804 61.9149 92.7224 61.7245 92.5988 61.5709C92.4753 61.4143 92.2981 61.2809 92.0672 61.1706C91.8393 61.0575 91.5711 60.954 91.2626 60.86L90.2828 60.5582C89.5734 60.3402 89.0189 60.0341 88.6193 59.64C88.2226 59.2432 88.0389 58.7327 88.0681 58.1083C88.0921 57.5947 88.2521 57.1514 88.5483 56.7785C88.8473 56.4057 89.243 56.1241 89.7353 55.9338C90.2278 55.7407 90.7792 55.6584 91.3893 55.6869C92.0079 55.7158 92.5449 55.849 93.0002 56.0865C93.4585 56.3212 93.8122 56.6349 94.0611 57.0276C94.3102 57.4175 94.4276 57.8582 94.4131 58.3495L92.8935 58.2785ZM98.7876 58.3364L98.7319 59.5283L94.9732 59.3526L95.0289 58.1607L98.7876 58.3364ZM96.0301 56.6376L97.571 56.7097L97.2841 62.8479C97.2744 63.055 97.2982 63.2154 97.3554 63.329C97.4157 63.4399 97.4973 63.5176 97.6005 63.5623C97.7036 63.6069 97.819 63.6322 97.9467 63.6382C98.0432 63.6427 98.1315 63.6397 98.2117 63.6292C98.2946 63.6189 98.3576 63.609 98.4007 63.5997L98.6041 64.8165C98.5205 64.841 98.4012 64.8667 98.2464 64.8936C98.0944 64.9206 97.909 64.9319 97.6902 64.9273C97.3038 64.9206 96.9589 64.8462 96.6555 64.704C96.3523 64.559 96.1162 64.3461 95.9474 64.0652C95.7813 63.7844 95.7093 63.4397 95.7312 63.0312L96.0301 56.6376ZM101.286 65.1381C100.872 65.1187 100.502 65.0275 100.177 64.8644C99.855 64.6986 99.6043 64.4651 99.425 64.1638C99.2485 63.8626 99.1703 63.4977 99.1903 63.0692C99.2076 62.7003 99.2899 62.3984 99.4374 62.1636C99.5849 61.9287 99.7798 61.7444 100.022 61.6107C100.264 61.477 100.535 61.3802 100.833 61.3202C101.135 61.2575 101.445 61.2165 101.765 61.1973C102.15 61.1755 102.462 61.1546 102.702 61.1345C102.942 61.1116 103.118 61.0686 103.229 61.0055C103.343 60.9398 103.403 60.8331 103.41 60.6855L103.411 60.66C103.426 60.3393 103.343 60.0866 103.161 59.9017C102.979 59.7169 102.709 59.6161 102.352 59.5994C101.974 59.5818 101.671 59.6501 101.442 59.8043C101.216 59.9587 101.059 60.1462 100.972 60.3668L99.5426 60.0952C99.6747 59.7032 99.8775 59.38 100.151 59.1254C100.425 58.868 100.753 58.6815 101.137 58.5657C101.521 58.4472 101.941 58.3985 102.398 58.4199C102.713 58.4346 103.025 58.4862 103.334 58.5746C103.642 58.6629 103.922 58.7983 104.172 58.9806C104.423 59.1601 104.619 59.3983 104.762 59.695C104.907 59.9919 104.97 60.3574 104.949 60.7916L104.745 65.1675L103.263 65.0983L103.305 64.2001L103.254 64.1977C103.152 64.375 103.012 64.5391 102.835 64.69C102.66 64.8383 102.442 64.9547 102.183 65.0392C101.926 65.1211 101.627 65.154 101.286 65.1381ZM101.739 64.0245C102.049 64.039 102.32 63.9905 102.552 63.8791C102.785 63.7648 102.968 63.6084 103.099 63.4098C103.234 63.2113 103.306 62.9915 103.318 62.7502L103.354 61.9798C103.304 62.0172 103.22 62.0503 103.102 62.0789C102.987 62.1077 102.857 62.1315 102.714 62.1504C102.571 62.1693 102.43 62.1854 102.29 62.1988C102.15 62.2122 102.028 62.2235 101.926 62.233C101.694 62.2534 101.486 62.2949 101.301 62.3573C101.116 62.4198 100.968 62.5124 100.857 62.6352C100.746 62.7552 100.686 62.9145 100.677 63.1131C100.664 63.3969 100.757 63.616 100.958 63.7704C101.158 63.9248 101.419 64.0095 101.739 64.0245ZM108.781 65.4842C108.128 65.4537 107.574 65.2842 107.119 64.9756C106.667 64.6673 106.327 64.2546 106.098 63.7377C105.872 63.218 105.774 62.6276 105.805 61.9664C105.836 61.3024 105.991 60.7223 106.271 60.2263C106.55 59.7274 106.929 59.347 107.407 59.085C107.889 58.8202 108.449 58.7028 109.088 58.7326C109.618 58.7574 110.083 58.8773 110.483 59.0922C110.885 59.3044 111.2 59.5936 111.428 59.9597C111.655 60.323 111.775 60.741 111.787 61.2137L110.314 61.1448C110.27 60.827 110.14 60.5579 109.926 60.3374C109.714 60.1142 109.423 59.994 109.051 59.9766C108.736 59.9619 108.455 60.0341 108.209 60.1932C107.963 60.3495 107.765 60.582 107.617 60.8908C107.472 61.1997 107.389 61.574 107.369 62.0139C107.348 62.4594 107.395 62.8456 107.511 63.1724C107.626 63.4963 107.798 63.7503 108.025 63.9344C108.256 64.1159 108.531 64.2141 108.852 64.229C109.079 64.2397 109.284 64.2066 109.467 64.1298C109.652 64.0503 109.81 63.9311 109.94 63.7722C110.07 63.6134 110.163 63.4172 110.219 63.1838L111.692 63.2526C111.633 63.7135 111.478 64.1172 111.226 64.4637C110.974 64.8074 110.64 65.0706 110.225 65.2531C109.81 65.4327 109.328 65.5098 108.781 65.4842ZM113.994 63.5437L114.076 61.6833L114.323 61.6948L116.796 59.1783L118.596 59.2625L115.556 62.3454L115.236 62.3305L113.994 63.5437ZM112.493 65.5298L112.901 56.812L114.442 56.884L114.034 65.6018L112.493 65.5298ZM116.597 65.7216L114.607 62.6466L115.697 61.6097L118.44 65.8078L116.597 65.7216ZM122.943 56.8719L119.646 67.1781L118.297 67.115L121.594 56.8089L122.943 56.8719ZM123.171 58.6189L123.233 57.295L130.188 57.6202L130.127 58.944L127.432 58.8181L127.086 66.212L125.52 66.1387L125.866 58.7448L123.171 58.6189ZM132.592 66.5973C131.953 66.5675 131.407 66.4011 130.951 66.0983C130.496 65.7955 130.152 65.3855 129.917 64.8683C129.685 64.3512 129.585 63.7549 129.617 63.0795C129.648 62.4041 129.803 61.8184 130.083 61.3224C130.365 60.8265 130.746 60.449 131.228 60.19C131.709 59.9309 132.269 59.8163 132.908 59.8462C133.546 59.876 134.093 60.0424 134.548 60.3452C135.003 60.648 135.346 61.0594 135.578 61.5793C135.813 62.0994 135.914 62.6971 135.882 63.3725C135.851 64.0479 135.694 64.6321 135.412 65.1252C135.133 65.6183 134.753 65.9945 134.272 66.2535C133.79 66.5126 133.23 66.6272 132.592 66.5973ZM132.658 65.3633C133.004 65.3795 133.298 65.2979 133.54 65.1187C133.782 64.9366 133.967 64.6864 134.095 64.3682C134.227 64.0502 134.302 63.6925 134.32 63.2952C134.339 62.895 134.298 62.5305 134.197 62.2016C134.098 61.8699 133.937 61.6022 133.714 61.3983C133.49 61.1945 133.205 61.0844 132.859 61.0683C132.504 61.0517 132.205 61.1344 131.96 61.3163C131.718 61.4984 131.532 61.7499 131.4 62.0708C131.271 62.389 131.198 62.7482 131.179 63.1483C131.16 63.5456 131.2 63.9087 131.299 64.2375C131.4 64.5664 131.562 64.8328 131.786 65.0367C132.013 65.2378 132.303 65.3467 132.658 65.3633ZM139.525 66.9214C138.887 66.8916 138.34 66.7253 137.885 66.4224C137.43 66.1196 137.085 65.7096 136.85 65.1924C136.618 64.6753 136.518 64.0791 136.55 63.4037C136.581 62.7283 136.737 62.1426 137.016 61.6465C137.298 61.1506 137.68 60.7732 138.161 60.5141C138.642 60.255 139.202 60.1404 139.841 60.1703C140.479 60.2001 141.026 60.3665 141.481 60.6693C141.936 60.9722 142.28 61.3835 142.511 61.9034C142.746 62.4235 142.847 63.0212 142.816 63.6966C142.784 64.372 142.627 64.9562 142.346 65.4493C142.066 65.9425 141.686 66.3186 141.205 66.5776C140.724 66.8367 140.164 66.9513 139.525 66.9214ZM139.591 65.6874C139.938 65.7036 140.231 65.622 140.473 65.4428C140.715 65.2607 140.9 65.0105 141.029 64.6923C141.16 64.3743 141.235 64.0166 141.254 63.6193C141.272 63.2192 141.231 62.8546 141.13 62.5257C141.032 62.194 140.871 61.9263 140.647 61.7224C140.423 61.5186 140.138 61.4086 139.792 61.3924C139.437 61.3758 139.138 61.4585 138.893 61.6404C138.651 61.8225 138.465 62.074 138.333 62.3949C138.205 62.7131 138.131 63.0723 138.112 63.4724C138.094 63.8697 138.134 64.2328 138.232 64.5616C138.333 64.8906 138.496 65.157 138.719 65.3608C138.946 65.5619 139.237 65.6708 139.591 65.6874ZM145.561 58.3388L145.153 67.0566L143.612 66.9845L144.02 58.2668L145.561 58.3388ZM147.879 65.1278L147.962 63.2674L148.208 63.2789L150.681 60.7624L152.481 60.8466L149.441 63.9295L149.121 63.9146L147.879 65.1278ZM146.378 67.1138L146.786 58.3961L148.327 58.4681L147.919 67.1859L146.378 67.1138ZM150.482 67.3057L148.492 64.2307L149.582 63.1938L152.325 67.3918L150.482 67.3057ZM152.843 67.4161L153.149 60.8778L154.69 60.9498L154.384 67.4881L152.843 67.4161ZM153.967 59.986C153.723 59.9746 153.517 59.8839 153.348 59.7139C153.18 59.5411 153.101 59.3398 153.112 59.1099C153.123 58.8772 153.22 58.6841 153.404 58.5306C153.587 58.3742 153.801 58.3017 154.045 58.3131C154.292 58.3247 154.498 58.4168 154.664 58.5895C154.832 58.7594 154.911 58.9608 154.9 59.1935C154.889 59.4233 154.792 59.6165 154.608 59.7728C154.428 59.9265 154.214 59.9975 153.967 59.986ZM159.18 61.1597L159.124 62.3516L155.365 62.1758L155.421 60.984L159.18 61.1597ZM156.422 59.4609L157.963 59.5329L157.676 65.6711C157.666 65.8783 157.69 66.0386 157.747 66.1522C157.808 66.2631 157.889 66.3409 157.992 66.3855C158.096 66.4302 158.211 66.4555 158.339 66.4614C158.435 66.4659 158.524 66.463 158.604 66.4525C158.687 66.4421 158.75 66.4323 158.793 66.4229L158.996 67.6397C158.912 67.6642 158.793 67.69 158.638 67.7168C158.486 67.7439 158.301 67.7551 158.082 67.7506C157.696 67.7439 157.351 67.6695 157.048 67.5273C156.744 67.3823 156.508 67.1693 156.339 66.8884C156.173 66.6076 156.101 66.263 156.123 65.8545L156.422 59.4609Z" fill="black"/>
</g>
<g clip-path="url(#clip1_136_54)">
<path d="M17.9725 144.148H57.6848C61.9212 144.148 65.3527 140.711 65.3527 136.475V104.223C72.2998 103.724 76.393 95.9478 72.6355 89.8796L70.4877 86.4135C69.6463 85.0505 68.47 83.9256 67.0707 83.1459C65.6713 82.3663 64.0957 81.958 62.4939 81.9599H56.6874V79.5751C56.6887 78.9773 56.572 78.3852 56.344 77.8326C56.116 77.28 55.7812 76.7778 55.3587 76.3549C54.9362 75.932 54.4344 75.5966 53.8821 75.368C53.3298 75.1394 52.7378 75.0221 52.14 75.0227C49.2774 75.0227 46.5321 76.1599 44.5079 78.184C42.4837 80.2082 41.3466 82.9535 41.3466 85.8161V100.313C35.9351 100.92 31.8172 103.532 28.7955 107.166C25.3985 111.244 23.4136 116.542 22.2286 121.603C21.2151 126.169 20.6365 130.822 20.5005 135.497C20.4511 136.939 20.4511 138.203 20.461 139.21H17.9774C16.3973 139.21 14.8515 138.749 13.5302 137.882C12.2089 137.016 11.1696 135.782 10.5401 134.333C9.91065 132.883 9.71843 131.281 9.98711 129.724C10.2558 128.167 10.9736 126.722 12.0524 125.568L15.9876 121.346C18.7592 118.374 20.269 114.442 20.199 110.378C20.129 106.315 18.4847 102.437 15.6123 99.5621L11.7512 95.696C11.5235 95.4602 11.2511 95.2722 10.9499 95.1428C10.6487 95.0134 10.3247 94.9453 9.99693 94.9424C9.66913 94.9396 9.34405 95.002 9.04065 95.1262C8.73725 95.2503 8.46161 95.4336 8.22981 95.6654C7.99801 95.8972 7.8147 96.1729 7.69057 96.4763C7.56644 96.7797 7.50397 97.1047 7.50682 97.4325C7.50967 97.7603 7.57777 98.0843 7.70716 98.3855C7.83654 98.6867 8.02462 98.9591 8.26041 99.1868L12.1265 103.053C14.0954 105.022 15.2226 107.68 15.2705 110.464C15.3184 113.249 14.2832 115.943 12.3832 117.979L8.4431 122.201C6.711 124.059 5.55901 126.383 5.12847 128.886C4.69793 131.39 5.00755 133.965 6.01936 136.295C7.03116 138.626 8.70114 140.61 10.8244 142.005C12.9477 143.4 15.432 144.144 17.9725 144.148ZM51.7499 79.975V84.4286C51.7499 85.0834 52.01 85.7113 52.473 86.1743C52.936 86.6373 53.5639 86.8974 54.2187 86.8974H62.4939C64.0393 86.8974 65.4762 87.6973 66.2958 89.0156L68.4436 92.4817C68.8648 93.1589 69.0971 93.9364 69.1164 94.7336C69.1357 95.5309 68.9413 96.3187 68.5534 97.0155C68.1655 97.7123 67.5982 98.2925 66.9103 98.696C66.2225 99.0995 65.4392 99.3116 64.6417 99.3103H62.8889C62.2342 99.3103 61.6062 99.5704 61.1432 100.033C60.6803 100.496 60.4202 101.124 60.4202 101.779V136.475C60.4202 137.2 60.132 137.896 59.619 138.409C59.106 138.922 58.4102 139.21 57.6848 139.21H54.9543V136.475C54.955 134.784 54.6225 133.11 53.9759 131.547C53.3293 129.985 52.3813 128.566 51.186 127.37C49.9906 126.174 48.5714 125.225 47.0093 124.578C45.4473 123.931 43.7731 123.598 42.0823 123.598H37.7472C37.0924 123.598 36.4645 123.858 36.0015 124.321C35.5385 124.784 35.2784 125.412 35.2784 126.067C35.2784 126.721 35.5385 127.349 36.0015 127.812C36.4645 128.275 37.0924 128.535 37.7472 128.535H42.0823C46.4618 128.535 50.0168 132.09 50.0168 136.475V139.21H25.3985C25.3837 138.257 25.3886 137.053 25.433 135.66C25.5515 132.095 25.9515 127.39 27.0377 122.724C28.1338 118.023 29.8867 113.565 32.5875 110.326C35.2093 107.176 38.7593 105.117 43.8153 105.117C44.4701 105.117 45.098 104.857 45.561 104.394C46.024 103.931 46.2841 103.303 46.2841 102.648V85.8161C46.2841 82.7153 48.6985 80.1725 51.7499 79.975Z" fill="black"/>
<path d="M30.5261 85.3343C30.6604 85.0922 30.7309 84.8198 30.7309 84.5429C30.7309 84.2659 30.6604 83.9936 30.5261 83.7514C30.3669 83.4857 30.1422 83.2652 29.8736 83.111L27.1186 81.7577L29.8977 80.3318C30.1617 80.1973 30.3833 79.9924 30.5382 79.7398C30.6952 79.4812 30.7798 79.1839 30.7798 78.8818C30.7798 78.5822 30.6952 78.2898 30.5382 78.036C30.3818 77.7728 30.1504 77.5624 29.8736 77.4318L20.2069 72.6952C19.9855 72.5846 19.7415 72.527 19.494 72.527C19.2465 72.527 19.0024 72.5846 18.7811 72.6952L9.11441 77.4439C8.84588 77.582 8.62024 77.791 8.46191 78.0481C8.30463 78.3022 8.22131 78.5951 8.22131 78.8939C8.22131 79.1928 8.30463 79.4857 8.46191 79.7398C8.61174 79.9983 8.83408 80.2086 9.10233 80.3439L11.8573 81.7577L9.10233 83.0748C8.83715 83.2131 8.61548 83.4222 8.46191 83.6789C8.30463 83.933 8.22131 84.2259 8.22131 84.5248C8.22131 84.8236 8.30463 85.1165 8.46191 85.3706C8.61174 85.6292 8.83408 85.8394 9.10233 85.9748L11.8573 87.3885L9.10233 88.7056C8.83715 88.844 8.61548 89.0531 8.46191 89.3098C8.30463 89.5638 8.22131 89.8568 8.22131 90.1556C8.22131 90.4544 8.30463 90.7473 8.46191 91.0014C8.61537 91.2576 8.83649 91.4666 9.10233 91.6056L18.769 96.4389C18.9998 96.5718 19.262 96.6431 19.5302 96.6443C19.7888 96.6468 20.0433 96.58 20.2673 96.451L30.0065 91.5089C30.362 91.2884 30.6192 90.9397 30.7249 90.5349C30.8306 90.1301 30.7767 89.7001 30.5744 89.3339C30.4152 89.0682 30.1906 88.8477 29.9219 88.6935L27.1548 87.3402L30.0065 85.8781C30.2183 85.7381 30.3959 85.5523 30.5261 85.3343ZM19.4819 89.2735L14.3344 86.6514L14.1048 86.5427L10.214 84.5368L13.839 82.7848L18.6723 85.286C18.9043 85.4153 19.1677 85.4818 19.4336 85.4793C19.6912 85.4872 19.9461 85.4246 20.1707 85.2981L25.004 82.7968L28.629 84.5489L19.4819 89.2735Z" fill="#101010"/>
</g>
<defs>
<clipPath id="clip0_136_54">
<rect width="106.453" height="106.453" fill="white" transform="matrix(-0.989871 -0.141967 -0.141967 0.989871 184.487 15.1128)"/>
</clipPath>
<clipPath id="clip1_136_54">
<rect width="79" height="79" fill="white" transform="translate(0 70.0852)"/>
</clipPath>
</defs>
</svg>
