<svg width="1825" height="337" viewBox="0 0 1825 337" fill="none" xmlns="http://www.w3.org/2000/svg">
<g clip-path="url(#clip0_133_39)">
<path d="M202.817 164.27L187.82 167.499L193.692 112.671L212.688 108.58L240.61 156.131L225.612 159.36L206.426 124.679L206.026 124.765L202.817 164.27ZM195.668 144.677L223.862 138.605L226.102 149.002L197.907 155.074L195.668 144.677ZM615.794 88.5863C612.372 87.0523 609.696 85.1243 607.767 82.8024C605.838 80.4806 604.669 78.0045 604.26 75.3742C603.852 72.744 604.198 70.2001 605.3 67.7425C606.102 65.9538 607.152 64.5285 608.45 63.4665C609.755 62.389 611.279 61.5502 613.024 60.95C614.769 60.3499 616.717 59.8594 618.867 59.4786L632.705 57.6124C634.101 57.4161 635.157 57.0396 635.874 56.4829C636.597 55.9106 637.088 55.3367 637.346 54.7612C637.687 53.9991 637.711 53.1969 637.416 52.3549C637.121 51.5128 636.379 50.8346 635.19 50.3202C634.459 49.9925 633.766 49.8501 633.112 49.893C632.464 49.9203 631.885 50.1088 631.373 50.4585C630.877 50.8152 630.479 51.3279 630.179 51.9967C629.768 52.9144 629.61 53.974 629.707 55.1754C629.81 56.3613 630.073 57.7121 630.496 59.2278C630.919 60.7435 631.399 62.4438 631.936 64.3285L643.659 100.182L630.78 94.4081L620.573 65.1747C620.077 63.7384 619.582 62.0311 619.086 60.0531C618.598 58.0595 618.348 55.9489 618.338 53.7215C618.344 51.501 618.834 49.302 619.811 47.1244C620.898 44.698 622.475 42.743 624.541 41.2595C626.607 39.776 628.959 38.906 631.595 38.6497C634.232 38.3934 636.95 38.8928 639.75 40.1479C642.425 41.3472 644.48 42.9313 645.913 44.9003C647.363 46.8762 648.197 49.0155 648.416 51.318C648.651 53.6275 648.273 55.8866 647.283 58.0953C646.286 60.3195 644.803 62.1485 642.834 63.5821C640.881 65.0227 638.561 66.0095 635.875 66.5426L622.845 69.1073C621.846 69.2944 620.913 69.6047 620.046 70.038C619.195 70.4784 618.525 71.2429 618.037 72.3317C617.633 73.2338 617.497 74.0979 617.631 74.9239C617.766 75.7499 618.137 76.5048 618.746 77.1886C619.37 77.8795 620.203 78.4585 621.245 78.9256C622.832 79.6369 624.589 79.967 626.517 79.9161C628.468 79.8566 630.415 79.431 632.357 78.6394C634.307 77.8322 636.104 76.6576 637.748 75.1157C639.414 73.5651 640.753 71.6622 641.764 69.4068L651.936 73.967C650.695 76.7356 649.212 79.2742 647.486 81.5826C645.76 83.891 643.781 85.8248 641.551 87.3839C639.32 88.9431 636.835 89.9865 634.095 90.5142C633.295 90.548 632.518 90.5732 631.763 90.5898C631.009 90.6064 630.232 90.6316 629.432 90.6654C626.968 91.0365 624.579 91.0115 622.264 90.5905C619.957 90.1538 617.8 89.4858 615.794 88.5863ZM1281.04 195.722L1261.03 198.013L1255.07 145.988L1274.89 143.721C1280.24 143.109 1284.98 143.621 1289.11 145.259C1293.26 146.877 1296.62 149.513 1299.18 153.166C1301.76 156.8 1303.36 161.326 1303.98 166.745C1304.6 172.165 1304.07 176.943 1302.4 181.08C1300.73 185.2 1298.07 188.524 1294.43 191.051C1290.79 193.56 1286.33 195.118 1281.04 195.722ZM1273.78 184.407L1279.16 183.79C1281.74 183.496 1283.88 182.83 1285.6 181.793C1287.33 180.754 1288.56 179.164 1289.28 177.023C1290.01 174.881 1290.17 171.997 1289.75 168.373C1289.34 164.749 1288.52 161.977 1287.31 160.057C1286.11 158.135 1284.52 156.867 1282.55 156.253C1280.59 155.636 1278.26 155.483 1275.55 155.793L1270.57 156.362L1273.78 184.407ZM1312.53 191.495L1297.12 141.452L1333.18 130.341L1336.55 141.288L1314.07 148.213L1316.72 156.814L1337.35 150.461L1340.72 161.408L1320.1 167.761L1322.75 176.362L1345.13 169.467L1348.5 180.414L1312.53 191.495ZM1365.52 133.754C1364.7 132.254 1363.57 131.302 1362.14 130.897C1360.72 130.486 1358.96 130.75 1356.86 131.691C1355.52 132.29 1354.5 132.944 1353.79 133.654C1353.09 134.341 1352.66 135.048 1352.5 135.773C1352.34 136.499 1352.41 137.215 1352.7 137.922C1352.93 138.512 1353.27 138.988 1353.71 139.35C1354.16 139.69 1354.73 139.928 1355.43 140.064C1356.12 140.185 1356.94 140.209 1357.9 140.136C1358.85 140.062 1359.95 139.888 1361.19 139.612L1365.49 138.697C1368.39 138.073 1370.98 137.799 1373.27 137.874C1375.57 137.949 1377.59 138.34 1379.35 139.049C1381.09 139.741 1382.59 140.732 1383.84 142.022C1385.11 143.304 1386.16 144.852 1386.99 146.665C1388.38 149.815 1388.78 152.827 1388.2 155.701C1387.62 158.576 1386.14 161.229 1383.75 163.66C1381.38 166.085 1378.18 168.202 1374.13 170.013C1369.98 171.873 1366.08 172.881 1362.43 173.039C1358.8 173.189 1355.56 172.371 1352.71 170.586C1349.86 168.778 1347.54 165.879 1345.73 161.888L1358.05 156.371C1358.78 157.798 1359.7 158.864 1360.8 159.567C1361.9 160.27 1363.15 160.614 1364.57 160.598C1365.99 160.575 1367.53 160.194 1369.18 159.456C1370.57 158.836 1371.65 158.146 1372.43 157.385C1373.21 156.625 1373.7 155.834 1373.91 155.011C1374.13 154.189 1374.06 153.385 1373.73 152.6C1373.39 151.876 1372.86 151.346 1372.15 151.01C1371.45 150.652 1370.48 150.489 1369.24 150.52C1368 150.535 1366.4 150.746 1364.45 151.151L1359.23 152.255C1354.59 153.232 1350.57 153.194 1347.16 152.141C1343.77 151.065 1341.24 148.656 1339.59 144.916C1338.21 141.889 1337.84 138.874 1338.45 135.872C1339.08 132.846 1340.56 130.045 1342.9 127.466C1345.25 124.881 1348.32 122.742 1352.1 121.05C1355.96 119.322 1359.58 118.474 1362.98 118.504C1366.37 118.535 1369.36 119.383 1371.93 121.05C1374.52 122.694 1376.52 125.076 1377.93 128.196L1365.52 133.754ZM1386.07 105.636L1410.1 152.158L1397.47 158.683L1373.44 112.161L1386.07 105.636ZM1428.71 102.331C1428.09 101.641 1427.41 101.109 1426.66 100.735C1425.91 100.346 1425.11 100.112 1424.25 100.031C1423.4 99.9275 1422.51 99.9931 1421.57 100.228C1420.64 100.439 1419.68 100.808 1418.71 101.334C1416.61 102.466 1415.09 103.935 1414.14 105.741C1413.21 107.539 1412.87 109.593 1413.11 111.904C1413.36 114.207 1414.21 116.694 1415.65 119.365C1417.1 122.066 1418.72 124.179 1420.49 125.703C1422.26 127.228 1424.14 128.108 1426.15 128.344C1428.15 128.579 1430.24 128.115 1432.4 126.951C1434.3 125.924 1435.74 124.793 1436.7 123.558C1437.68 122.316 1438.2 121.015 1438.28 119.655C1438.36 118.295 1438.03 116.924 1437.29 115.544L1439.57 114.604L1429.04 120.281L1424.23 111.368L1444.67 100.354L1448.11 106.746C1450.38 110.948 1451.42 115.022 1451.25 118.971C1451.08 122.896 1449.86 126.495 1447.6 129.768C1445.34 133.017 1442.2 135.725 1438.18 137.893C1433.69 140.311 1429.24 141.481 1424.82 141.403C1420.4 141.325 1416.29 140.036 1412.49 137.537C1408.7 135.03 1405.49 131.346 1402.87 126.484C1400.82 122.673 1399.57 118.985 1399.14 115.421C1398.73 111.85 1399.01 108.493 1399.99 105.351C1400.96 102.195 1402.53 99.3668 1404.68 96.8677C1406.83 94.3537 1409.46 92.2596 1412.57 90.5856C1415.3 89.1138 1418.04 88.1372 1420.81 87.6559C1423.57 87.1515 1426.24 87.1269 1428.81 87.5819C1431.39 88.0139 1433.75 88.8984 1435.91 90.2356C1438.06 91.5729 1439.88 93.3321 1441.36 95.5135L1428.71 102.331ZM1487.36 58.5281L1506.2 107.385L1495.13 111.653L1467.58 92.7923L1467.29 92.9027L1477.19 118.572L1463.93 123.687L1445.08 74.83L1456.34 70.4877L1483.57 89.3637L1483.96 89.2165L1474.09 63.6431L1487.36 58.5281ZM1511.63 107.658L1529.38 58.393L1564.88 71.1832L1561 81.9598L1538.87 73.9876L1535.82 82.455L1556.12 89.7686L1552.24 100.545L1531.94 93.2316L1528.89 101.699L1550.92 109.636L1547.04 120.413L1511.63 107.658ZM1551.25 122.085L1571.12 73.637L1592.03 82.2134C1595.62 83.688 1598.5 85.6329 1600.66 88.0478C1602.82 90.4628 1604.15 93.2076 1604.64 96.2823C1605.13 99.357 1604.67 102.613 1603.26 106.051C1601.83 109.521 1599.86 112.129 1597.34 113.877C1594.83 115.631 1591.94 116.546 1588.67 116.622C1585.41 116.704 1581.94 115.989 1578.25 114.475L1565.75 109.353L1569.95 99.1335L1579.79 103.169C1581.33 103.803 1582.73 104.154 1583.97 104.222C1585.24 104.28 1586.34 104.003 1587.27 103.391C1588.22 102.785 1588.97 101.796 1589.53 100.424C1590.1 99.0365 1590.27 97.786 1590.02 96.6728C1589.8 95.5503 1589.22 94.5577 1588.29 93.6949C1587.37 92.8228 1586.14 92.0699 1584.6 91.436L1579.96 89.5345L1564.4 127.479L1551.25 122.085ZM1588.75 111.49L1591.75 138.694L1577.46 132.834L1574.75 105.747L1588.75 111.49Z" fill="black"/>
<path d="M258.222 152.744L247.938 101.4L270.1 96.961C273.91 96.1977 277.395 96.2819 280.555 97.2136C283.714 98.1454 286.36 99.8143 288.494 102.221C290.627 104.627 292.059 107.652 292.789 111.295C293.525 114.972 293.344 118.32 292.245 121.339C291.163 124.355 289.297 126.884 286.646 128.927C284.013 130.967 280.74 132.379 276.829 133.162L263.592 135.814L261.423 124.984L271.852 122.895C273.49 122.566 274.829 122.003 275.868 121.204C276.921 120.384 277.649 119.378 278.054 118.184C278.474 116.987 278.539 115.662 278.248 114.208C277.953 112.737 277.385 111.547 276.542 110.638C275.713 109.709 274.658 109.086 273.377 108.769C272.11 108.431 270.658 108.427 269.02 108.755L264.106 109.739L272.161 149.952L258.222 152.744ZM303.788 143.374L289.904 92.8842L311.698 86.8913C315.445 85.8609 318.911 85.6413 322.097 86.2326C325.283 86.8239 328.009 88.1868 330.275 90.3214C332.541 92.456 334.167 95.3147 335.152 98.8976C336.147 102.513 336.18 105.784 335.252 108.708C334.34 111.628 332.612 114.119 330.067 116.18C327.539 118.236 324.352 119.793 320.506 120.851L307.489 124.43L304.56 113.78L314.816 110.96C316.427 110.517 317.745 109.943 318.77 109.236C319.808 108.509 320.509 107.618 320.873 106.563C321.253 105.504 321.247 104.259 320.854 102.83C320.456 101.383 319.82 100.294 318.947 99.5618C318.086 98.8087 317.022 98.3766 315.754 98.2656C314.498 98.1337 313.064 98.2892 311.453 98.7321L306.621 100.061L317.495 139.604L303.788 143.374ZM326.999 112.065L345.994 131.768L331.104 135.862L312.405 116.078L326.999 112.065ZM381.361 82.9812C384.13 88.1114 385.467 92.9774 385.375 97.5792C385.274 102.166 384.018 106.282 381.607 109.926C379.189 113.556 375.894 116.496 371.724 118.746C367.524 121.013 363.239 122.153 358.869 122.168C354.507 122.159 350.381 120.938 346.491 118.504C342.609 116.048 339.292 112.269 336.539 107.169C333.771 102.039 332.429 97.1844 332.515 92.6057C332.608 88.004 333.856 83.8923 336.26 80.2709C338.671 76.6263 341.976 73.6708 346.176 71.4042C350.346 69.1538 354.616 68.0213 358.986 68.0069C363.347 67.9775 367.477 69.1871 371.374 71.6356C375.264 74.0691 378.593 77.851 381.361 82.9812ZM368.491 89.9267C367.001 87.1666 365.379 85.0398 363.624 83.5464C361.876 82.0299 360.026 81.1686 358.075 80.9626C356.13 80.7335 354.123 81.1775 352.053 82.2946C349.983 83.4117 348.503 84.8498 347.612 86.6089C346.728 88.3448 346.433 90.3637 346.726 92.6654C347.026 94.9441 347.92 97.4634 349.41 100.224C350.899 102.984 352.518 105.122 354.266 106.639C356.021 108.132 357.871 108.993 359.815 109.222C361.766 109.428 363.777 108.973 365.847 107.856C367.917 106.739 369.394 105.312 370.278 103.576C371.169 101.817 371.464 99.7981 371.164 97.5195C370.871 95.2177 369.98 92.6868 368.491 89.9267ZM416.271 93.4116L398.716 103.298L373.022 57.6709L390.4 47.8853C395.093 45.2423 399.662 43.8724 404.107 43.7756C408.558 43.6556 412.674 44.7809 416.454 47.1514C420.241 49.4988 423.472 53.0489 426.149 57.8017C428.825 62.5544 430.197 67.1616 430.264 71.6231C430.323 76.0698 429.166 80.1642 426.794 83.9064C424.413 87.6337 420.905 90.8021 416.271 93.4116ZM405.181 85.8067L409.904 83.147C412.162 81.8757 413.88 80.4287 415.06 78.806C416.254 77.1749 416.765 75.2341 416.593 72.9834C416.436 70.7244 415.463 68.0057 413.673 64.8272C411.883 61.6488 410.055 59.411 408.19 58.1138C406.34 56.8083 404.386 56.2558 402.327 56.4564C400.284 56.6486 398.074 57.4139 395.697 58.7521L391.331 61.211L405.181 85.8067ZM451.156 17.5793L464.135 11.7802L477.82 42.4076C479.447 46.0493 479.983 49.5901 479.429 53.0301C478.884 56.4476 477.386 59.5719 474.936 62.4029C472.479 65.2184 469.203 67.5406 465.11 69.3693C460.986 71.2119 457.056 72.1093 453.319 72.0612C449.576 71.9976 446.249 71.0289 443.339 69.1551C440.438 67.2587 438.174 64.4897 436.547 60.848L422.863 30.2206L435.842 24.4215L449.026 53.9284C449.687 55.4068 450.604 56.5836 451.78 57.4588C452.948 58.3184 454.254 58.8177 455.697 58.9568C457.157 59.0889 458.625 58.8247 460.104 58.1641C461.598 57.4966 462.775 56.5788 463.634 55.4106C464.494 54.2424 464.993 52.9365 465.132 51.4928C465.265 50.0335 465 48.5647 464.34 47.0862L451.156 17.5793ZM537.335 21.657L522.962 22.8265C522.763 21.6456 522.403 20.5889 521.883 19.6564C521.379 18.7226 520.717 17.9385 519.896 17.3041C519.09 16.6514 518.137 16.1817 517.036 15.8951C515.934 15.5914 514.703 15.4949 513.344 15.6054C510.966 15.799 509 16.5404 507.446 17.8298C505.909 19.1178 504.803 20.8752 504.129 23.1019C503.472 25.3273 503.267 27.9521 503.513 30.9761C503.773 34.1701 504.415 36.8114 505.44 38.8999C506.481 40.9701 507.861 42.4824 509.581 43.437C511.299 44.3747 513.304 44.7501 515.598 44.5635C516.906 44.4571 518.065 44.2003 519.075 43.7932C520.084 43.369 520.945 42.8116 521.659 42.1208C522.372 41.43 522.93 40.6235 523.334 39.7013C523.754 38.7608 524.003 37.723 524.081 36.5879L538.463 35.5203C538.472 37.7427 538.036 40.0442 537.152 42.4249C536.267 44.7885 534.918 47.0189 533.104 49.1161C531.307 51.1949 529.012 52.9379 526.219 54.3452C523.426 55.7524 520.118 56.6116 516.296 56.9226C511.505 57.3125 507.123 56.6344 503.15 54.8883C499.194 53.1409 495.95 50.3608 493.416 46.548C490.9 42.7339 489.406 37.9386 488.936 32.1623C488.463 26.3519 489.187 21.3678 491.106 17.2098C493.023 13.0348 495.802 9.77315 499.442 7.42477C503.08 5.0594 507.244 3.68594 511.933 3.30439C515.229 3.0362 518.298 3.23965 521.141 3.91475C523.983 4.58985 526.52 5.70883 528.75 7.2717C530.98 8.81759 532.834 10.7959 534.313 13.2066C535.791 15.6174 536.799 18.4341 537.335 21.657ZM558.852 17.641L563.503 7.1731L605.094 25.6513L600.444 36.1193L586.05 29.7246L569.441 67.11L556.636 61.4212L573.246 24.0357L558.852 17.641Z" fill="#21595F"/>
<path d="M716.445 102.859L703.882 95.7786C704.379 94.6889 704.673 93.6121 704.764 92.5481C704.87 91.4925 704.76 90.4719 704.435 89.4865C704.133 88.4945 703.607 87.5716 702.855 86.7176C702.112 85.8488 701.147 85.0797 699.959 84.4101C697.88 83.2384 695.836 82.7515 693.826 82.9494C691.832 83.1556 689.931 83.9925 688.126 85.4598C686.336 86.9356 684.695 88.995 683.206 91.6382C681.632 94.4299 680.685 96.9778 680.365 99.2822C680.068 101.58 680.364 103.606 681.254 105.36C682.152 107.099 683.603 108.533 685.608 109.663C686.751 110.307 687.856 110.744 688.92 110.972C689.994 111.186 691.019 111.206 691.997 111.033C692.975 110.861 693.889 110.505 694.74 109.967C695.615 109.423 696.402 108.703 697.103 107.806L709.615 114.976C708.379 116.823 706.728 118.485 704.662 119.962C702.605 121.425 700.238 122.517 697.562 123.239C694.908 123.954 692.031 124.113 688.929 123.715C685.827 123.317 682.606 122.176 679.265 120.293C675.077 117.933 671.827 114.917 669.513 111.245C667.214 107.582 666.083 103.462 666.12 98.8841C666.171 94.3149 667.619 89.5059 670.465 84.4572C673.327 79.3788 676.718 75.6546 680.636 73.2846C684.563 70.8998 688.692 69.7539 693.023 69.8467C697.362 69.9247 701.58 71.1187 705.679 73.4287C708.559 75.0524 710.988 76.9398 712.965 79.0911C714.942 81.2423 716.417 83.5899 717.389 86.134C718.371 88.6632 718.799 91.3405 718.674 94.1659C718.549 96.9913 717.806 99.8891 716.445 102.859ZM757.555 156.3C753.145 160.112 748.684 162.471 744.171 163.375C739.671 164.269 735.381 163.933 731.301 162.367C727.235 160.79 723.652 158.21 720.553 154.625C717.432 151.014 715.392 147.077 714.433 142.814C713.498 138.553 713.798 134.26 715.333 129.937C716.892 125.615 719.863 121.559 724.248 117.769C728.658 113.957 733.108 111.597 737.596 110.691C742.109 109.787 746.394 110.116 750.449 111.68C754.529 113.246 758.129 115.834 761.25 119.444C764.349 123.029 766.378 126.953 767.337 131.216C768.309 135.468 768.021 139.762 766.473 144.096C764.938 148.42 761.966 152.488 757.555 156.3ZM747.991 145.236C750.364 143.185 752.09 141.141 753.168 139.105C754.271 137.07 754.712 135.078 754.491 133.128C754.294 131.18 753.427 129.317 751.888 127.537C750.35 125.758 748.626 124.623 746.716 124.134C744.83 123.646 742.795 123.794 740.611 124.578C738.451 125.364 736.185 126.782 733.812 128.833C731.439 130.884 729.702 132.927 728.599 134.962C727.52 136.998 727.079 138.99 727.276 140.938C727.497 142.888 728.377 144.752 729.915 146.532C731.453 148.311 733.165 149.445 735.051 149.933C736.961 150.422 738.996 150.274 741.156 149.488C743.34 148.704 745.618 147.287 747.991 145.236ZM770.08 132.677L785.025 142.149L779.428 173.715L779.946 174.044L806.103 155.507L821.048 164.978L793.017 209.208L781.269 201.762L797.474 176.192L797.128 175.973L771.294 194.956L764.21 190.467L770.458 158.828L770.113 158.609L753.798 184.352L742.05 176.907L770.08 132.677ZM818.748 163.676L835.011 170.645L834.516 202.7L835.08 202.942L857.948 180.474L874.211 187.443L853.587 235.574L840.802 230.095L852.726 202.27L852.35 202.108L829.871 224.966L822.162 221.663L823.289 189.433L822.913 189.272L810.909 217.286L798.124 211.807L818.748 163.676ZM901.582 193.653L915.41 196.954L907.621 229.583C906.695 233.462 904.965 236.598 902.432 238.99C899.919 241.369 896.828 242.936 893.161 243.69C889.497 244.428 885.486 244.277 881.125 243.236C876.731 242.187 873.067 240.506 870.132 238.193C867.2 235.864 865.151 233.07 863.983 229.812C862.836 226.542 862.726 222.967 863.652 219.087L871.441 186.458L885.268 189.759L877.764 221.194C877.388 222.769 877.4 224.262 877.8 225.671C878.203 227.064 878.935 228.256 879.996 229.245C881.073 230.238 882.399 230.922 883.975 231.298C885.566 231.678 887.059 231.667 888.452 231.263C889.845 230.86 891.036 230.128 892.025 229.067C893.018 227.99 893.703 226.663 894.079 225.088L901.582 193.653ZM957.551 199.329L954.176 251.583L942.337 250.819L925.229 222.145L924.923 222.125L923.15 249.58L908.963 248.664L912.338 196.409L924.381 197.186L941.19 225.738L941.598 225.765L943.364 198.412L957.551 199.329ZM972.263 198.731L974.337 251.053L960.132 251.617L958.058 199.294L972.263 198.731ZM1022.82 209.718L1008.62 212.199C1008.31 211.041 1007.86 210.022 1007.25 209.141C1006.67 208.257 1005.94 207.537 1005.06 206.981C1004.2 206.405 1003.21 206.024 1002.08 205.84C1000.96 205.638 999.724 205.655 998.381 205.889C996.03 206.3 994.14 207.218 992.711 208.645C991.298 210.068 990.358 211.919 989.891 214.198C989.441 216.474 989.477 219.107 989.999 222.096C990.55 225.253 991.432 227.824 992.644 229.81C993.869 231.776 995.382 233.155 997.182 233.949C998.979 234.725 1001.01 234.915 1003.28 234.519C1004.57 234.293 1005.7 233.932 1006.67 233.434C1007.63 232.919 1008.44 232.285 1009.09 231.532C1009.74 230.778 1010.22 229.924 1010.54 228.969C1010.87 227.994 1011.02 226.938 1010.99 225.8L1025.22 223.42C1025.43 225.632 1025.21 227.964 1024.54 230.416C1023.88 232.85 1022.74 235.195 1021.13 237.449C1019.53 239.684 1017.4 241.63 1014.75 243.287C1012.1 244.944 1008.88 246.103 1005.1 246.762C1000.37 247.589 995.943 247.316 991.827 245.941C987.728 244.563 984.242 242.092 981.37 238.527C978.515 234.959 976.589 230.321 975.592 224.612C974.589 218.869 974.852 213.84 976.383 209.524C977.91 205.191 980.378 201.688 983.787 199.016C987.194 196.328 991.214 194.579 995.849 193.769C999.106 193.2 1002.18 193.122 1005.07 193.534C1007.97 193.946 1010.59 194.828 1012.96 196.18C1015.32 197.515 1017.35 199.315 1019.04 201.58C1020.73 203.845 1022 206.558 1022.82 209.718ZM1044.91 235.703L1030.61 241.255L1027.77 186.185L1045.89 179.153L1080.95 221.712L1066.65 227.264L1042.24 196.038L1041.86 196.186L1044.91 235.703ZM1034.77 217.481L1061.65 207.043L1065.5 216.958L1038.62 227.396L1034.77 217.481ZM1059.05 186.328L1053.93 176.084L1094.63 155.722L1099.75 165.967L1085.67 173.013L1103.97 209.599L1091.44 215.868L1073.14 179.282L1059.05 186.328ZM1115.48 146.878L1135.44 195.288L1122.29 200.707L1102.33 152.297L1115.48 146.878ZM1189.23 163.062C1189.79 168.865 1189.13 173.869 1187.25 178.072C1185.38 182.259 1182.62 185.563 1178.98 187.983C1175.34 190.386 1171.16 191.814 1166.45 192.266C1161.69 192.721 1157.3 192.106 1153.27 190.42C1149.26 188.716 1145.93 185.986 1143.29 182.232C1140.67 178.459 1139.08 173.688 1138.53 167.919C1137.97 162.116 1138.63 157.122 1140.49 152.937C1142.36 148.734 1145.11 145.431 1148.73 143.029C1152.37 140.609 1156.56 139.171 1161.32 138.716C1166.03 138.264 1170.41 138.881 1174.44 140.567C1178.47 142.235 1181.8 144.955 1184.44 148.727C1187.08 152.481 1188.67 157.26 1189.23 163.062ZM1174.67 164.457C1174.37 161.335 1173.71 158.745 1172.67 156.687C1171.65 154.61 1170.28 153.097 1168.56 152.148C1166.86 151.181 1164.84 150.81 1162.5 151.034C1160.15 151.259 1158.23 152.008 1156.73 153.282C1155.24 154.538 1154.18 156.283 1153.55 158.518C1152.94 160.734 1152.79 163.403 1153.09 166.525C1153.39 169.647 1154.05 172.246 1155.07 174.323C1156.1 176.381 1157.47 177.894 1159.18 178.861C1160.89 179.81 1162.92 180.172 1165.27 179.947C1167.61 179.723 1169.52 178.983 1171.01 177.727C1172.52 176.453 1173.57 174.708 1174.18 172.492C1174.81 170.257 1174.97 167.579 1174.67 164.457ZM1250.66 145.864L1241.54 197.427L1229.86 195.36L1216.02 164.973L1215.72 164.92L1210.92 192.01L1196.92 189.533L1206.05 137.971L1217.93 140.073L1231.48 170.306L1231.89 170.377L1236.66 143.387L1250.66 145.864Z" fill="#F2837B"/>
<path d="M290.674 196.042C290.944 197.353 290.721 198.423 290.007 199.249C289.292 200.076 288.152 200.65 286.588 200.972L282.211 201.872L279.389 188.14L283.524 187.29C284.099 187.172 284.674 187.105 285.248 187.089C285.821 187.067 286.352 187.14 286.84 187.31C287.335 187.479 287.767 187.767 288.136 188.174C288.503 188.573 288.763 189.145 288.916 189.889C289.209 191.313 288.697 192.431 287.379 193.242C289.229 193.418 290.327 194.351 290.674 196.042ZM287.475 190.185C287.375 189.701 287.192 189.325 286.925 189.059C286.658 188.792 286.35 188.61 286.002 188.514C285.651 188.41 285.281 188.369 284.891 188.391C284.499 188.406 284.128 188.449 283.777 188.521L281.083 189.075L282.041 193.736L284.735 193.183C285.128 193.102 285.508 192.995 285.875 192.861C286.241 192.72 286.557 192.534 286.824 192.304C287.09 192.066 287.29 191.777 287.424 191.435C287.559 191.093 287.576 190.676 287.475 190.185ZM289.233 196.338C289.038 195.391 288.588 194.767 287.883 194.466C287.183 194.156 286.297 194.112 285.224 194.332L282.288 194.936L283.399 200.344L286.335 199.741C287.408 199.52 288.204 199.123 288.722 198.548C289.246 197.966 289.416 197.229 289.233 196.338ZM301.254 189.013C300.679 188.87 300.035 188.878 299.323 189.037C298.735 189.168 298.239 189.411 297.834 189.765C297.429 190.12 297.111 190.539 296.882 191.023C296.651 191.5 296.507 192.024 296.451 192.594C296.4 193.155 296.437 193.716 296.561 194.275L297.265 197.431L299.477 196.938L299.751 198.164L293.89 199.471L293.616 198.245L295.829 197.751L294.197 190.433L291.985 190.926L291.711 189.7L295.36 188.886L295.907 191.339C296.165 189.403 297.213 188.231 299.051 187.821C299.548 187.71 299.984 187.646 300.362 187.627C300.746 187.608 301.114 187.643 301.464 187.734L301.254 189.013ZM308.973 183.658L307.033 184.14L306.549 182.191L308.488 181.709L308.973 183.658ZM313.808 194.832L307.98 196.28L307.677 195.06L309.877 194.514L308.069 187.237L305.869 187.783L305.566 186.564L309.204 185.66L311.316 194.156L313.505 193.612L313.808 194.832ZM327.263 191.223L325.834 191.619L325.587 190.729C325.282 191.208 324.911 191.612 324.474 191.941C324.045 192.268 323.575 192.503 323.064 192.644C322.298 192.857 321.577 192.923 320.901 192.843C320.225 192.764 319.615 192.561 319.071 192.236C318.533 191.903 318.064 191.457 317.663 190.899C317.27 190.339 316.971 189.69 316.766 188.952C316.563 188.221 316.486 187.514 316.534 186.831C316.588 186.14 316.76 185.516 317.052 184.96C317.348 184.394 317.766 183.903 318.304 183.486C318.84 183.062 319.491 182.744 320.257 182.532C320.768 182.39 321.291 182.345 321.825 182.397C322.365 182.441 322.889 182.589 323.398 182.842L322.421 179.322L320.496 179.857L320.16 178.646L323.514 177.715L327.263 191.223ZM323.78 184.218C323.248 183.883 322.713 183.682 322.175 183.616C321.643 183.548 321.108 183.589 320.57 183.738C320.004 183.895 319.532 184.134 319.152 184.455C318.78 184.774 318.497 185.146 318.303 185.571C318.109 185.997 318.001 186.465 317.979 186.977C317.963 187.479 318.031 188.006 318.184 188.558C318.338 189.11 318.552 189.601 318.827 190.03C319.107 190.45 319.44 190.793 319.825 191.057C320.211 191.322 320.646 191.495 321.129 191.576C321.619 191.656 322.147 191.617 322.713 191.46C323.803 191.157 324.636 190.462 325.211 189.373L323.78 184.218ZM339.112 187.414C339.323 188.068 339.399 188.687 339.339 189.271C339.279 189.854 339.102 190.389 338.807 190.876C338.52 191.36 338.13 191.783 337.637 192.146C337.153 192.512 336.574 192.805 335.899 193.022C334.952 193.328 334.087 193.412 333.305 193.273C332.53 193.132 331.792 192.806 331.093 192.294L331.83 191.221C332.266 191.569 332.808 191.804 333.457 191.926C334.106 192.047 334.785 191.994 335.494 191.765C336.461 191.453 337.145 190.961 337.546 190.29C337.955 189.623 338.011 188.83 337.714 187.91L337.384 186.888C336.791 187.892 335.962 188.566 334.899 188.909C333.406 189.391 332.097 189.344 330.97 188.767C329.843 188.19 329.041 187.162 328.563 185.683C328.33 184.961 328.225 184.261 328.247 183.584C328.274 182.898 328.42 182.268 328.686 181.693C328.957 181.109 329.349 180.598 329.862 180.161C330.374 179.718 331.001 179.376 331.744 179.136C332.262 178.969 332.792 178.899 333.336 178.927C333.884 178.946 334.417 179.071 334.936 179.303L334.658 178.444L336.069 177.988L339.112 187.414ZM335.375 180.662C334.829 180.349 334.283 180.172 333.735 180.13C333.195 180.087 332.658 180.151 332.127 180.322C331.568 180.503 331.106 180.761 330.74 181.097C330.381 181.431 330.117 181.814 329.948 182.245C329.779 182.676 329.695 183.15 329.697 183.669C329.703 184.179 329.792 184.699 329.964 185.231C330.316 186.321 330.879 187.099 331.654 187.564C332.429 188.029 333.381 188.078 334.513 187.713C335.044 187.542 335.517 187.28 335.93 186.928C336.348 186.568 336.685 186.098 336.942 185.518L335.375 180.662ZM343.349 173.25L341.479 173.954L340.771 172.075L342.641 171.37L343.349 173.25ZM349.454 183.784L343.834 185.901L343.391 184.725L345.512 183.926L342.868 176.909L340.747 177.709L340.304 176.532L343.812 175.21L346.899 183.403L349.01 182.608L349.454 183.784ZM362.218 178.227L360.873 178.85L358.275 173.246C357.898 172.434 357.431 171.885 356.872 171.6C356.313 171.314 355.641 171.354 354.855 171.718C354.361 171.947 353.966 172.269 353.668 172.683C353.377 173.094 353.181 173.556 353.079 174.069C352.975 174.575 352.962 175.11 353.042 175.673C353.125 176.226 353.29 176.77 353.537 177.302L355.425 181.376L354.09 181.995L349.879 172.912L351.214 172.293L352.271 174.574C352.143 172.612 352.905 171.249 354.555 170.484C356.79 169.447 358.478 170.16 359.62 172.623L362.218 178.227ZM373.034 172.093C373.381 172.687 373.589 173.275 373.656 173.857C373.724 174.44 373.667 175.001 373.484 175.54C373.308 176.075 373.018 176.572 372.616 177.032C372.223 177.495 371.72 177.905 371.109 178.264C370.25 178.767 369.423 179.035 368.63 179.069C367.842 179.099 367.051 178.939 366.258 178.591L366.746 177.384C367.247 177.63 367.827 177.742 368.487 177.721C369.147 177.699 369.798 177.5 370.441 177.124C371.318 176.61 371.88 175.982 372.126 175.24C372.382 174.501 372.265 173.714 371.776 172.88L371.233 171.953C370.87 173.062 370.207 173.899 369.243 174.464C367.89 175.257 366.601 175.493 365.376 175.173C364.151 174.854 363.146 174.023 362.36 172.682C361.976 172.027 361.722 171.367 361.598 170.701C361.476 170.026 361.483 169.378 361.618 168.76C361.756 168.131 362.029 167.548 362.436 167.011C362.839 166.467 363.378 165.998 364.051 165.603C364.521 165.328 365.024 165.145 365.561 165.055C366.1 164.955 366.647 164.962 367.204 165.076L366.748 164.297L368.027 163.548L373.034 172.093ZM367.926 166.309C367.326 166.121 366.754 166.065 366.211 166.143C365.673 166.218 365.163 166.396 364.681 166.678C364.175 166.975 363.779 167.327 363.495 167.735C363.217 168.138 363.042 168.569 362.969 169.026C362.897 169.483 362.918 169.965 363.032 170.471C363.148 170.967 363.348 171.456 363.63 171.938C364.209 172.927 364.927 173.565 365.784 173.851C366.641 174.138 367.582 173.98 368.608 173.379C369.09 173.097 369.494 172.739 369.822 172.307C370.152 171.864 370.38 171.332 370.506 170.711L367.926 166.309ZM391.055 152.168C391.555 152.962 391.947 153.773 392.231 154.601C392.517 155.419 392.648 156.217 392.621 156.995C392.597 157.764 392.393 158.488 392.01 159.17C391.633 159.847 391.035 160.444 390.217 160.959L386.362 163.385L378.894 151.522L382.748 149.095C383.554 148.588 384.348 148.316 385.13 148.281C385.914 148.236 386.66 148.372 387.367 148.689C388.08 149.001 388.746 149.462 389.366 150.07C389.992 150.675 390.555 151.374 391.055 152.168ZM389.809 152.952C388.833 151.4 387.783 150.385 386.661 149.907C385.541 149.419 384.46 149.503 383.418 150.159L380.809 151.801L386.938 161.538L389.547 159.895C390.589 159.239 391.136 158.306 391.188 157.098C391.246 155.885 390.786 154.503 389.809 152.952ZM395.43 152.42C396.062 153.277 396.826 153.807 397.72 154.01C398.614 154.213 399.52 154.043 400.438 153.499C401.085 153.116 401.583 152.642 401.931 152.078C402.28 151.514 402.463 150.959 402.483 150.415L403.731 150.5C403.657 151.359 403.417 152.126 403.009 152.801C402.597 153.469 401.954 154.062 401.079 154.58C400.413 154.974 399.738 155.225 399.052 155.331C398.366 155.438 397.703 155.415 397.063 155.261C396.425 155.098 395.833 154.808 395.286 154.391C394.739 153.974 394.267 153.429 393.869 152.758C393.482 152.105 393.225 151.445 393.098 150.78C392.973 150.105 392.979 149.456 393.118 148.833C393.259 148.2 393.535 147.612 393.946 147.069C394.353 146.52 394.893 146.047 395.564 145.649C396.297 145.214 397.011 144.958 397.706 144.88C398.4 144.801 399.059 144.873 399.681 145.095C400.306 145.308 400.884 145.665 401.414 146.167C401.951 146.665 402.436 147.28 402.87 148.013L395.43 152.42ZM400.89 147.726C400.189 146.867 399.431 146.367 398.615 146.226C397.799 146.085 396.994 146.25 396.199 146.721C395.793 146.962 395.457 147.252 395.192 147.592C394.924 147.926 394.73 148.294 394.611 148.698C394.492 149.101 394.447 149.531 394.476 149.989C394.502 150.439 394.613 150.886 394.808 151.328L400.89 147.726ZM414.297 143.499C414.585 144.01 414.696 144.507 414.63 144.988C414.563 145.469 414.383 145.923 414.09 146.351C413.803 146.776 413.432 147.169 412.978 147.531C412.534 147.895 412.075 148.211 411.601 148.478C410.808 148.924 409.953 149.252 409.037 149.463C408.121 149.675 407.27 149.754 406.485 149.703L406.435 148.277C407.306 148.321 408.115 148.277 408.862 148.144C409.609 148.012 410.317 147.758 410.985 147.382C412.914 146.298 413.597 145.256 413.036 144.257C412.899 144.014 412.707 143.863 412.461 143.804C412.217 143.736 411.934 143.73 411.613 143.788C411.289 143.839 410.936 143.934 410.555 144.075C410.18 144.212 409.788 144.362 409.379 144.526C408.853 144.731 408.324 144.922 407.791 145.099C407.257 145.276 406.738 145.383 406.234 145.42C405.735 145.454 405.276 145.383 404.857 145.208C404.445 145.029 404.094 144.684 403.806 144.172C403.561 143.735 403.458 143.296 403.497 142.855C403.543 142.41 403.69 141.978 403.939 141.559C404.194 141.136 404.544 140.734 404.987 140.353C405.43 139.973 405.92 139.631 406.457 139.33C407.225 138.898 407.962 138.602 408.67 138.443C409.373 138.277 410.062 138.223 410.735 138.28L410.783 139.571C410.087 139.503 409.445 139.544 408.855 139.694C408.263 139.838 407.667 140.079 407.068 140.416C406.799 140.567 406.514 140.76 406.211 140.996C405.911 141.222 405.654 141.474 405.44 141.75C405.222 142.021 405.069 142.304 404.981 142.6C404.895 142.886 404.931 143.17 405.089 143.451C405.226 143.694 405.415 143.847 405.655 143.909C405.898 143.961 406.182 143.962 406.506 143.911C406.828 143.854 407.176 143.757 407.55 143.62C407.932 143.479 408.327 143.327 408.736 143.163C409.249 142.965 409.772 142.777 410.305 142.601C410.845 142.421 411.362 142.311 411.857 142.27C412.358 142.227 412.818 142.293 413.237 142.468C413.656 142.643 414.01 142.987 414.297 143.499ZM417.641 131.166L415.879 132.109L414.931 130.338L416.693 129.395L417.641 131.166ZM425.07 140.811L419.776 143.645L419.183 142.537L421.181 141.467L417.643 134.857L415.644 135.926L415.051 134.818L418.356 133.049L422.488 140.768L424.477 139.703L425.07 140.811ZM437.395 134.314C437.707 134.927 437.879 135.526 437.912 136.112C437.945 136.698 437.855 137.255 437.641 137.781C437.433 138.305 437.115 138.784 436.685 139.22C436.266 139.658 435.74 140.038 435.108 140.36C434.221 140.812 433.38 141.031 432.586 141.017C431.798 141 431.018 140.794 430.247 140.4L430.805 139.223C431.291 139.499 431.863 139.645 432.523 139.663C433.183 139.68 433.845 139.52 434.509 139.182C435.415 138.721 436.013 138.128 436.302 137.402C436.601 136.679 436.532 135.887 436.093 135.025L435.606 134.068C435.178 135.153 434.466 135.95 433.471 136.456C432.073 137.168 430.772 137.328 429.568 136.936C428.365 136.544 427.41 135.656 426.705 134.271C426.361 133.594 426.146 132.92 426.061 132.248C425.98 131.566 426.025 130.921 426.197 130.311C426.371 129.692 426.678 129.126 427.116 128.613C427.552 128.095 428.117 127.658 428.813 127.304C429.298 127.057 429.811 126.905 430.351 126.846C430.895 126.778 431.442 126.818 431.991 126.964L431.581 126.16L432.902 125.488L437.395 134.314ZM432.639 128.238C432.051 128.014 431.483 127.926 430.936 127.971C430.395 128.013 429.876 128.161 429.378 128.415C428.854 128.681 428.439 129.009 428.131 129.399C427.829 129.785 427.629 130.205 427.53 130.657C427.431 131.109 427.423 131.591 427.507 132.103C427.593 132.605 427.763 133.105 428.017 133.603C428.537 134.624 429.216 135.303 430.054 135.64C430.892 135.977 431.841 135.875 432.901 135.336C433.399 135.083 433.824 134.75 434.176 134.337C434.532 133.915 434.791 133.398 434.953 132.785L432.639 128.238ZM448.632 128.951L447.296 129.594L444.617 124.029C444.228 123.222 443.753 122.68 443.19 122.403C442.627 122.125 441.955 122.174 441.175 122.55C440.684 122.786 440.293 123.114 440.002 123.532C439.717 123.947 439.528 124.412 439.433 124.927C439.336 125.434 439.331 125.969 439.419 126.531C439.51 127.083 439.683 127.624 439.938 128.153L441.885 132.199L440.559 132.837L436.217 123.817L437.543 123.178L438.633 125.443C438.476 123.484 439.218 122.109 440.857 121.32C443.076 120.252 444.775 120.94 445.952 123.386L448.632 128.951ZM470.164 115.458C470.389 116.001 470.481 116.54 470.44 117.077C470.396 117.607 470.252 118.108 470.006 118.582C469.761 119.056 469.429 119.481 469.011 119.856C468.593 120.231 468.119 120.528 467.59 120.748C466.862 121.049 466.138 121.191 465.417 121.172C464.696 121.153 464.047 120.953 463.47 120.572L464.042 121.952L462.891 122.429L461.257 118.49L462.408 118.012C462.592 118.456 462.864 118.82 463.222 119.105C463.578 119.384 463.97 119.59 464.397 119.723C464.824 119.856 465.275 119.913 465.748 119.895C466.225 119.868 466.679 119.765 467.109 119.587C467.492 119.427 467.824 119.228 468.104 118.987C468.382 118.741 468.602 118.467 468.764 118.167C468.924 117.861 469.013 117.533 469.031 117.184C469.056 116.833 468.991 116.472 468.838 116.101C468.665 115.685 468.424 115.366 468.115 115.145C467.813 114.921 467.463 114.768 467.064 114.686C466.672 114.6 466.254 114.564 465.81 114.578C465.363 114.585 464.911 114.598 464.454 114.617C463.916 114.646 463.375 114.669 462.831 114.685C462.285 114.695 461.768 114.638 461.283 114.514C460.797 114.389 460.356 114.177 459.96 113.876C459.561 113.569 459.238 113.117 458.991 112.522C458.772 111.993 458.689 111.476 458.744 110.973C458.796 110.463 458.945 109.99 459.191 109.555C459.437 109.119 459.771 108.729 460.194 108.383C460.613 108.031 461.078 107.749 461.587 107.537C462.216 107.277 462.848 107.166 463.484 107.204C464.127 107.24 464.707 107.461 465.224 107.866L464.665 106.517L465.865 106.019L467.4 109.72L466.2 110.218C466.038 109.828 465.804 109.498 465.499 109.229C465.197 108.951 464.858 108.751 464.482 108.628C464.102 108.498 463.705 108.438 463.291 108.447C462.873 108.45 462.466 108.534 462.069 108.698C461.718 108.844 461.401 109.022 461.116 109.233C460.831 109.444 460.607 109.688 460.443 109.966C460.276 110.237 460.178 110.541 460.147 110.879C460.124 111.215 460.192 111.574 460.351 111.958C460.491 112.295 460.693 112.549 460.957 112.718C461.228 112.885 461.544 113.002 461.905 113.069C462.263 113.13 462.659 113.159 463.093 113.158C463.53 113.147 463.976 113.137 464.429 113.127C464.99 113.096 465.556 113.086 466.126 113.098C466.697 113.109 467.236 113.184 467.743 113.322C468.25 113.461 468.717 113.698 469.143 114.033C469.566 114.361 469.906 114.836 470.164 115.458ZM482.529 111.263C482.786 112.291 482.687 113.22 482.231 114.053C481.779 114.876 481.053 115.473 480.052 115.843C479.501 116.046 478.964 116.142 478.44 116.129C477.916 116.116 477.433 116.008 476.992 115.805C476.55 115.602 476.156 115.308 475.808 114.925C475.465 114.533 475.194 114.068 474.995 113.531L473.235 108.764L471.109 109.55L470.673 108.371L472.799 107.586L471.411 103.827L472.791 103.317L474.18 107.076L478.18 105.598L478.616 106.777L474.615 108.255L476.376 113.021C476.502 113.363 476.675 113.666 476.894 113.929C477.12 114.189 477.373 114.397 477.652 114.553C477.938 114.707 478.247 114.8 478.578 114.83C478.908 114.853 479.254 114.798 479.617 114.664C480.302 114.411 480.795 113.988 481.095 113.396C481.4 112.795 481.46 112.143 481.277 111.439L482.529 111.263ZM492.382 102.47C491.798 102.37 491.156 102.426 490.457 102.638C489.881 102.812 489.405 103.091 489.027 103.475C488.65 103.859 488.364 104.301 488.172 104.801C487.977 105.294 487.873 105.827 487.859 106.399C487.85 106.963 487.929 107.519 488.095 108.068L489.033 111.162L491.202 110.505L491.566 111.708L485.82 113.449L485.455 112.246L487.624 111.589L485.45 104.413L483.281 105.07L482.916 103.867L486.494 102.783L487.223 105.189C487.336 103.239 488.293 101.991 490.096 101.445C490.582 101.298 491.013 101.201 491.388 101.155C491.77 101.106 492.139 101.114 492.495 101.178L492.382 102.47ZM497.18 107.189C497.057 106.571 497.108 106.024 497.334 105.548C497.559 105.065 497.897 104.654 498.348 104.316C498.805 103.969 499.346 103.679 499.971 103.444C500.601 103.202 501.254 103.013 501.928 102.878C502.188 102.826 502.42 102.784 502.625 102.75C502.837 102.715 503.036 102.686 503.221 102.664C503.414 102.64 503.607 102.62 503.801 102.603C503.995 102.586 504.207 102.569 504.437 102.552L504.296 101.847C504.201 101.369 504.017 100.997 503.744 100.73C503.479 100.462 503.178 100.27 502.841 100.154C502.502 100.032 502.161 99.9689 501.817 99.9646C501.472 99.9533 501.183 99.9707 500.951 100.017C500.221 100.163 499.566 100.396 498.988 100.716C498.409 101.036 497.886 101.414 497.418 101.851L496.548 100.896C497.066 100.42 497.668 99.9971 498.354 99.6265C499.045 99.2475 499.829 98.9704 500.707 98.7951C501.241 98.6885 501.778 98.6542 502.319 98.6923C502.865 98.7219 503.371 98.8401 503.836 99.0466C504.306 99.2448 504.71 99.5511 505.049 99.9655C505.387 100.38 505.621 100.91 505.75 101.556L507.033 107.982L505.579 108.272L505.251 106.629C505.062 106.996 504.829 107.331 504.554 107.634C504.285 107.936 503.991 108.199 503.671 108.424C503.349 108.641 503.02 108.824 502.685 108.971C502.35 109.125 502.025 109.234 501.709 109.297C500.41 109.557 499.377 109.504 498.61 109.138C497.843 108.773 497.367 108.123 497.18 107.189ZM501.463 108.065C502.067 107.944 502.59 107.748 503.033 107.477C503.481 107.198 503.847 106.891 504.13 106.557C504.414 106.223 504.617 105.887 504.74 105.548C504.869 105.208 504.909 104.916 504.86 104.67L504.675 103.743C504.19 103.766 503.73 103.818 503.293 103.898C502.863 103.977 502.49 104.048 502.174 104.111C501.654 104.215 501.159 104.35 500.689 104.517C500.225 104.682 499.83 104.882 499.505 105.115C499.177 105.341 498.93 105.602 498.763 105.898C498.596 106.195 498.549 106.529 498.623 106.901C498.706 107.315 498.983 107.658 499.453 107.929C499.929 108.192 500.599 108.237 501.463 108.065ZM520.141 104.526C519.994 105.575 519.553 106.4 518.818 107C518.091 107.594 517.194 107.875 516.127 107.842C515.54 107.824 515.006 107.711 514.525 107.502C514.045 107.294 513.638 107.013 513.305 106.659C512.972 106.305 512.716 105.885 512.538 105.399C512.366 104.907 512.29 104.374 512.307 103.802L512.464 98.7229L510.198 98.6531L510.237 97.3969L512.502 97.4666L512.626 93.4617L514.097 93.507L513.973 97.5119L518.236 97.6432L518.197 98.8994L513.935 98.7682L513.778 103.847C513.767 104.212 513.814 104.557 513.918 104.883C514.03 105.209 514.186 105.497 514.386 105.746C514.593 105.996 514.845 106.198 515.141 106.35C515.438 106.495 515.779 106.574 516.166 106.586C516.896 106.608 517.511 106.401 518.012 105.965C518.52 105.523 518.821 104.941 518.915 104.22L520.141 104.526ZM525.422 104.245C525.101 105.261 525.121 106.19 525.483 107.032C525.845 107.875 526.516 108.507 527.496 108.93C528.186 109.228 528.862 109.352 529.523 109.302C530.184 109.252 530.74 109.074 531.192 108.77L531.858 109.829C531.119 110.275 530.357 110.531 529.572 110.598C528.789 110.658 527.931 110.487 526.998 110.084C526.288 109.778 525.688 109.378 525.198 108.886C524.708 108.394 524.337 107.844 524.085 107.236C523.842 106.624 523.728 105.975 523.744 105.287C523.76 104.6 523.923 103.898 524.232 103.181C524.533 102.484 524.914 101.888 525.377 101.394C525.85 100.896 526.379 100.52 526.964 100.265C527.559 100.007 528.197 99.8847 528.878 99.8977C529.561 99.9041 530.261 100.062 530.978 100.371C531.761 100.709 532.388 101.135 532.86 101.651C533.331 102.166 533.66 102.741 533.847 103.376C534.043 104.006 534.094 104.683 534 105.407C533.912 106.134 533.7 106.888 533.362 107.671L525.422 104.245ZM532.43 105.9C532.713 104.828 532.671 103.921 532.306 103.179C531.94 102.436 531.333 101.881 530.485 101.515C530.051 101.328 529.618 101.227 529.188 101.213C528.76 101.192 528.348 101.252 527.952 101.393C527.555 101.534 527.181 101.751 526.829 102.044C526.479 102.33 526.183 102.681 525.94 103.099L532.43 105.9ZM542.416 116.495C542.135 117.122 541.777 117.632 541.342 118.026C540.906 118.42 540.416 118.698 539.872 118.862C539.334 119.03 538.761 119.083 538.153 119.022C537.548 118.971 536.922 118.8 536.275 118.51C535.366 118.103 534.668 117.586 534.18 116.959C533.698 116.335 533.369 115.599 533.192 114.751L534.458 114.447C534.549 114.998 534.794 115.536 535.195 116.06C535.595 116.585 536.135 117 536.815 117.304C537.743 117.72 538.581 117.813 539.327 117.583C540.078 117.362 540.65 116.81 541.046 115.928L541.485 114.947C540.371 115.296 539.305 115.242 538.285 114.785C536.854 114.144 535.913 113.232 535.462 112.049C535.011 110.866 535.104 109.565 535.739 108.147C536.05 107.454 536.44 106.864 536.909 106.376C537.389 105.884 537.919 105.514 538.502 105.265C539.094 105.012 539.727 104.896 540.401 104.915C541.078 104.928 541.772 105.094 542.485 105.413C542.981 105.636 543.422 105.939 543.807 106.324C544.202 106.704 544.514 107.154 544.744 107.674L545.113 106.85L546.466 107.456L542.416 116.495ZM544.16 108.977C543.965 108.38 543.678 107.882 543.299 107.485C542.926 107.09 542.485 106.779 541.975 106.55C541.439 106.31 540.923 106.193 540.426 106.198C539.936 106.206 539.484 106.313 539.07 106.52C538.655 106.726 538.275 107.023 537.929 107.41C537.593 107.793 537.311 108.239 537.082 108.749C536.614 109.794 536.511 110.749 536.776 111.613C537.04 112.477 537.714 113.152 538.799 113.638C539.309 113.866 539.835 113.988 540.378 114.004C540.929 114.016 541.495 113.892 542.074 113.634L544.16 108.977ZM558.581 112.86L548.53 122.118C547.99 122.646 547.443 122.904 546.891 122.893C546.337 122.889 545.778 122.762 545.215 122.511C544.587 122.232 544.01 121.837 543.484 121.329L544.265 120.289C544.514 120.557 544.774 120.782 545.045 120.966C545.314 121.156 545.539 121.291 545.722 121.373C546.167 121.571 546.52 121.599 546.779 121.456C547.045 121.316 547.306 121.126 547.562 120.887L548.737 119.753L548.847 108.524L550.437 109.232L550.171 118.698L556.972 112.143L558.581 112.86ZM579.687 126.459C579.321 126.971 578.882 127.455 578.369 127.91C577.856 128.366 577.294 128.764 576.683 129.106L577.592 131.23L576.206 131.876L575.326 129.683C574.651 129.903 573.958 130.021 573.247 130.037C572.536 130.054 571.836 129.911 571.148 129.608C570.649 129.39 570.217 129.091 569.852 128.711C569.493 128.335 569.219 127.917 569.03 127.458C568.84 127 568.739 126.517 568.726 126.011C568.717 125.499 568.821 124.993 569.04 124.495C569.222 124.082 569.433 123.725 569.674 123.424C569.912 123.114 570.167 122.854 570.439 122.645C570.717 122.439 571.009 122.274 571.314 122.149C571.621 122.019 571.938 121.911 572.264 121.828C572.082 121.138 571.989 120.495 571.985 119.898C571.984 119.296 572.095 118.738 572.32 118.227C572.763 117.217 573.408 116.542 574.253 116.202C575.106 115.864 576.02 115.91 576.997 116.339C577.443 116.534 577.829 116.786 578.156 117.094C578.491 117.397 578.749 117.737 578.928 118.113C579.107 118.489 579.198 118.889 579.2 119.312C579.208 119.738 579.112 120.18 578.91 120.639C578.686 121.151 578.392 121.542 578.031 121.814C577.669 122.085 577.274 122.291 576.845 122.431C576.416 122.571 575.955 122.666 575.464 122.716C574.979 122.769 574.497 122.835 574.016 122.914L576.098 127.793C576.603 127.498 577.057 127.158 577.461 126.772C577.874 126.383 578.234 125.982 578.541 125.569L579.687 126.459ZM571.718 128.31C572.229 128.535 572.746 128.648 573.269 128.651C573.801 128.65 574.312 128.565 574.8 128.397L572.868 123.606L572.698 123.191C572.227 123.337 571.802 123.557 571.423 123.851C571.052 124.143 570.743 124.57 570.496 125.134C570.219 125.763 570.191 126.381 570.41 126.985C570.639 127.586 571.075 128.028 571.718 128.31ZM573.717 118.84C573.581 119.148 573.483 119.524 573.422 119.966C573.37 120.405 573.423 120.952 573.581 121.608C574.002 121.558 574.418 121.51 574.829 121.464C575.247 121.42 575.627 121.349 575.968 121.248C576.319 121.144 576.627 120.994 576.893 120.798C577.165 120.605 577.378 120.334 577.531 119.987C577.755 119.475 577.762 118.997 577.55 118.552C577.339 118.108 576.977 117.773 576.466 117.548C576.184 117.425 575.902 117.371 575.621 117.389C575.349 117.402 575.088 117.471 574.838 117.596C574.59 117.714 574.371 117.884 574.18 118.105C573.989 118.326 573.835 118.571 573.717 118.84ZM603.542 133.382L602.39 132.878L603.784 129.689L601.028 128.485L596.421 139.027L598.488 139.93L597.985 141.082L592.483 138.678L592.986 137.526L595.063 138.434L599.669 127.891L596.913 126.687L595.519 129.876L594.368 129.373L596.265 125.032L605.439 129.041L603.542 133.382ZM605.229 139.358C604.897 140.37 604.907 141.299 605.259 142.146C605.612 142.992 606.275 143.632 607.25 144.066C607.937 144.371 608.612 144.503 609.273 144.46C609.935 144.417 610.493 144.246 610.948 143.947L611.602 145.013C610.859 145.451 610.094 145.699 609.308 145.757C608.525 145.808 607.669 145.627 606.74 145.214C606.033 144.9 605.437 144.494 604.953 143.996C604.469 143.499 604.104 142.945 603.859 142.334C603.622 141.719 603.516 141.069 603.539 140.381C603.563 139.694 603.733 138.994 604.05 138.281C604.359 137.587 604.747 136.996 605.216 136.507C605.694 136.014 606.227 135.643 606.815 135.396C607.413 135.144 608.052 135.029 608.732 135.049C609.416 135.063 610.114 135.229 610.828 135.546C611.606 135.892 612.229 136.326 612.695 136.846C613.161 137.367 613.483 137.946 613.663 138.582C613.852 139.215 613.895 139.892 613.793 140.615C613.698 141.341 613.477 142.093 613.131 142.872L605.229 139.358ZM612.218 141.09C612.513 140.022 612.481 139.115 612.124 138.368C611.766 137.621 611.165 137.06 610.321 136.684C609.889 136.492 609.458 136.387 609.028 136.368C608.6 136.342 608.188 136.398 607.79 136.534C607.392 136.671 607.015 136.884 606.66 137.172C606.307 137.454 606.007 137.803 605.76 138.218L612.218 141.09ZM622.993 150.193C622.334 150.616 621.588 150.853 620.753 150.904C619.928 150.952 619.056 150.766 618.138 150.346C617.428 150.021 616.831 149.605 616.345 149.1C615.86 148.594 615.501 148.036 615.269 147.426C615.046 146.812 614.95 146.161 614.98 145.474C615.011 144.787 615.189 144.089 615.514 143.379C615.83 142.689 616.229 142.1 616.713 141.612C617.199 141.118 617.736 140.754 618.324 140.519C618.915 140.277 619.55 140.17 620.231 140.198C620.92 140.223 621.617 140.396 622.32 140.718C622.6 140.846 622.872 141.009 623.135 141.209C623.398 141.408 623.629 141.635 623.827 141.891C624.028 142.141 624.189 142.408 624.311 142.692C624.436 142.97 624.492 143.259 624.48 143.561L625.084 142.242L626.285 142.792L624.618 146.436L623.416 145.886C623.601 145.482 623.695 145.08 623.697 144.679C623.706 144.281 623.638 143.904 623.494 143.547C623.351 143.19 623.133 142.866 622.841 142.574C622.552 142.277 622.205 142.035 621.802 141.851C621.255 141.6 620.733 141.476 620.236 141.477C619.746 141.481 619.29 141.583 618.867 141.783C618.445 141.984 618.06 142.273 617.715 142.65C617.378 143.024 617.091 143.471 616.852 143.992C616.614 144.513 616.471 145.03 616.425 145.545C616.388 146.056 616.446 146.539 616.6 146.995C616.76 147.454 617.008 147.875 617.345 148.258C617.689 148.643 618.127 148.958 618.661 149.203C619.338 149.513 620.002 149.655 620.651 149.629C621.301 149.604 621.867 149.434 622.35 149.119L622.993 150.193ZM633.304 157.212L631.968 156.57L634.644 151.002C635.032 150.196 635.159 149.486 635.024 148.873C634.89 148.26 634.432 147.766 633.651 147.39C633.16 147.155 632.661 147.054 632.152 147.087C631.65 147.124 631.168 147.266 630.708 147.513C630.25 147.754 629.829 148.084 629.445 148.503C629.07 148.919 628.756 149.392 628.501 149.921L626.556 153.968L625.23 153.331L631.303 140.696L632.629 141.333L629.804 147.21C631.238 145.865 632.774 145.586 634.414 146.374C636.634 147.442 637.156 149.198 635.98 151.645L633.304 157.212ZM644.453 162.751L643.128 162.086L645.899 156.566C646.301 155.766 646.44 155.059 646.316 154.443C646.192 153.828 645.743 153.326 644.969 152.938C644.482 152.693 643.984 152.584 643.475 152.609C642.972 152.637 642.488 152.77 642.024 153.01C641.562 153.243 641.135 153.566 640.744 153.978C640.362 154.387 640.04 154.855 639.776 155.379L637.762 159.392L636.446 158.732L640.938 149.784L642.253 150.445L641.126 152.691C642.582 151.371 644.123 151.119 645.748 151.935C647.95 153.04 648.442 154.806 647.224 157.231L644.453 162.751ZM658.508 164.415C658.147 165.107 657.709 165.678 657.192 166.127C656.682 166.58 656.114 166.902 655.489 167.094C654.875 167.282 654.222 167.342 653.531 167.273C652.84 167.203 652.142 166.985 651.437 166.618C650.745 166.257 650.173 165.814 649.72 165.288C649.268 164.761 648.939 164.19 648.735 163.575C648.54 162.957 648.479 162.307 648.551 161.626C648.629 160.948 648.849 160.263 649.21 159.571C649.56 158.898 649.994 158.328 650.511 157.863C651.038 157.394 651.61 157.063 652.228 156.868C652.856 156.67 653.516 156.606 654.206 156.675C654.9 156.738 655.594 156.949 656.286 157.31C656.991 157.677 657.568 158.127 658.017 158.66C658.47 159.186 658.792 159.762 658.983 160.387C659.184 161.008 659.241 161.667 659.152 162.364C659.073 163.058 658.859 163.741 658.508 164.415ZM657.203 163.735C657.467 163.227 657.634 162.72 657.704 162.215C657.783 161.707 657.76 161.215 657.637 160.739C657.513 160.263 657.29 159.824 656.967 159.421C656.65 159.022 656.231 158.687 655.71 158.415C655.189 158.144 654.671 157.991 654.156 157.957C653.648 157.926 653.166 157.998 652.711 158.173C652.257 158.348 651.841 158.612 651.463 158.965C651.096 159.314 650.779 159.743 650.515 160.251C650.25 160.759 650.078 161.267 649.999 161.775C649.93 162.28 649.957 162.763 650.081 163.223C650.205 163.683 650.427 164.109 650.747 164.502C651.073 164.898 651.497 165.232 652.018 165.503C652.539 165.775 653.052 165.929 653.557 165.966C654.069 166.007 654.552 165.947 655.007 165.788C655.461 165.629 655.872 165.375 656.24 165.026C656.617 164.673 656.938 164.243 657.203 163.735ZM665.22 173.57L659.91 170.766L660.497 169.654L662.502 170.713L667.874 160.539L665.87 159.481L666.457 158.37L669.772 160.12L663.812 171.405L665.807 172.459L665.22 173.57ZM680.527 176.542C680.133 177.216 679.667 177.764 679.128 178.188C678.596 178.615 678.014 178.908 677.38 179.069C676.757 179.227 676.102 179.254 675.415 179.151C674.729 179.048 674.043 178.795 673.357 178.394C672.683 178 672.133 177.528 671.707 176.98C671.281 176.432 670.981 175.846 670.807 175.221C670.643 174.594 670.614 173.942 670.72 173.266C670.832 172.593 671.085 171.919 671.479 171.245C671.863 170.59 672.324 170.043 672.863 169.604C673.413 169.162 674.001 168.859 674.628 168.695C675.265 168.528 675.926 168.496 676.613 168.6C677.303 168.696 677.985 168.942 678.659 169.336C679.345 169.738 679.899 170.216 680.321 170.77C680.747 171.318 681.04 171.909 681.201 172.542C681.371 173.173 681.395 173.834 681.272 174.526C681.159 175.215 680.911 175.887 680.527 176.542ZM679.257 175.799C679.547 175.304 679.738 174.806 679.832 174.306C679.936 173.802 679.938 173.309 679.839 172.828C679.739 172.346 679.537 171.896 679.234 171.478C678.938 171.064 678.536 170.708 678.029 170.412C677.522 170.115 677.012 169.937 676.5 169.878C675.993 169.822 675.508 169.87 675.046 170.022C674.583 170.175 674.155 170.418 673.76 170.751C673.376 171.082 673.039 171.495 672.749 171.989C672.46 172.483 672.263 172.982 672.159 173.486C672.065 173.987 672.069 174.47 672.169 174.936C672.27 175.401 672.471 175.838 672.771 176.246C673.078 176.658 673.485 177.013 673.991 177.309C674.498 177.606 675.003 177.785 675.506 177.847C676.015 177.913 676.501 177.878 676.962 177.741C677.424 177.605 677.847 177.371 678.232 177.04C678.626 176.707 678.968 176.293 679.257 175.799ZM687.645 187.403C687.242 187.961 686.787 188.388 686.281 188.685C685.775 188.981 685.239 189.155 684.672 189.205C684.112 189.259 683.54 189.195 682.956 189.012C682.375 188.839 681.796 188.545 681.222 188.129C680.415 187.546 679.836 186.898 679.486 186.185C679.141 185.477 678.968 184.689 678.967 183.822L680.268 183.782C680.245 184.34 680.376 184.916 680.662 185.511C680.947 186.106 681.392 186.622 681.996 187.058C682.82 187.654 683.621 187.915 684.399 187.841C685.179 187.777 685.852 187.353 686.418 186.57L687.047 185.699C685.886 185.814 684.853 185.545 683.947 184.89C682.676 183.972 681.94 182.887 681.739 181.637C681.538 180.387 681.892 179.133 682.802 177.873C683.247 177.258 683.749 176.759 684.308 176.377C684.877 175.993 685.472 175.738 686.093 175.613C686.724 175.485 687.367 175.5 688.023 175.656C688.684 175.806 689.33 176.11 689.963 176.567C690.404 176.886 690.774 177.272 691.073 177.727C691.381 178.18 691.596 178.684 691.716 179.239L692.245 178.508L693.446 179.376L687.645 187.403ZM690.879 180.397C690.809 179.772 690.629 179.227 690.339 178.761C690.054 178.299 689.685 177.904 689.233 177.577C688.757 177.233 688.275 177.013 687.788 176.917C687.306 176.825 686.842 176.838 686.394 176.957C685.946 177.075 685.514 177.288 685.097 177.596C684.69 177.903 684.322 178.283 683.995 178.735C683.324 179.664 683.03 180.578 683.113 181.478C683.196 182.377 683.72 183.175 684.683 183.872C685.136 184.199 685.626 184.425 686.154 184.55C686.692 184.674 687.271 184.668 687.89 184.533L690.879 180.397ZM704.358 189.086L691.787 194.443C691.101 194.759 690.499 194.819 689.983 194.625C689.462 194.435 688.978 194.128 688.532 193.703C688.034 193.229 687.622 192.665 687.297 192.009L688.381 191.291C688.526 191.627 688.695 191.926 688.889 192.19C689.078 192.459 689.245 192.662 689.391 192.801C689.743 193.136 690.066 193.28 690.359 193.232C690.657 193.19 690.966 193.098 691.287 192.959L692.774 192.283L696.638 181.74L697.899 182.939L694.479 191.77L703.082 187.871L704.358 189.086Z" fill="black"/>
<path d="M1144.21 99.4942L1142.6 99.6607L1141.87 92.6202L1135.36 93.2946L1136.09 100.335L1134.49 100.5L1132.91 85.2887L1134.51 85.1234L1135.22 91.9308L1141.73 91.2564L1141.03 84.449L1142.64 84.2825L1144.21 99.4942ZM1148.9 94.327C1148.99 95.4857 1149.39 96.4171 1150.1 97.1212C1150.81 97.8253 1151.75 98.1908 1152.91 98.2177C1153.73 98.2367 1154.46 98.0857 1155.11 97.7646C1155.76 97.4436 1156.25 97.0369 1156.58 96.5444L1157.69 97.3437C1157.12 98.0964 1156.46 98.6671 1155.69 99.0557C1154.92 99.4365 1153.99 99.6141 1152.88 99.5885C1152.03 99.569 1151.26 99.4105 1150.57 99.1131C1149.87 98.8156 1149.27 98.411 1148.77 97.8992C1148.27 97.3798 1147.89 96.7693 1147.63 96.0676C1147.36 95.366 1147.24 94.5895 1147.26 93.7382C1147.28 92.9103 1147.42 92.1517 1147.69 91.4623C1147.96 90.7653 1148.34 90.1685 1148.83 89.6719C1149.32 89.1676 1149.92 88.7828 1150.61 88.5175C1151.31 88.2444 1152.08 88.1177 1152.93 88.1374C1153.86 88.1589 1154.67 88.3339 1155.36 88.6624C1156.05 88.9909 1156.61 89.4378 1157.06 90.003C1157.52 90.5605 1157.85 91.2246 1158.05 91.995C1158.26 92.7657 1158.35 93.6157 1158.33 94.5452L1148.9 94.327ZM1156.66 93.1352C1156.51 91.936 1156.1 91.0356 1155.42 90.4339C1154.75 89.8322 1153.91 89.5197 1152.9 89.4964C1152.38 89.4845 1151.91 89.5594 1151.46 89.7211C1151.02 89.875 1150.63 90.1043 1150.29 90.409C1149.95 90.7136 1149.66 91.0859 1149.42 91.5259C1149.18 91.958 1149.03 92.435 1148.95 92.9569L1156.66 93.1352ZM1169.15 100.74L1162.66 99.806L1162.86 98.4489L1165.31 98.8013L1167.1 86.3787L1164.65 86.0262L1164.84 84.6691L1168.89 85.252L1166.91 99.0318L1169.34 99.3825L1169.15 100.74ZM1182.2 103.404L1175.83 101.897L1176.14 100.563L1178.55 101.131L1181.43 88.917L1179.03 88.3484L1179.34 87.014L1183.32 87.9545L1180.12 101.503L1182.52 102.069L1182.2 103.404ZM1198.78 101.521C1198.6 102.353 1198.31 103.081 1197.89 103.703C1197.49 104.326 1196.98 104.829 1196.38 105.211C1195.79 105.587 1195.12 105.838 1194.37 105.965C1193.63 106.091 1192.83 106.063 1191.98 105.881C1191.15 105.701 1190.42 105.4 1189.79 104.977C1189.16 104.553 1188.65 104.048 1188.26 103.46C1187.88 102.866 1187.62 102.2 1187.5 101.462C1187.39 100.727 1187.42 99.9427 1187.6 99.1103C1187.78 98.3008 1188.07 97.5765 1188.48 96.9375C1188.9 96.2926 1189.4 95.7784 1190 95.395C1190.6 95.0056 1191.28 94.7476 1192.02 94.6208C1192.77 94.4865 1193.56 94.509 1194.39 94.6885C1195.24 94.8713 1195.98 95.1781 1196.61 95.6088C1197.23 96.032 1197.74 96.5444 1198.12 97.1462C1198.51 97.742 1198.76 98.4192 1198.87 99.1778C1198.99 99.9304 1198.96 100.711 1198.78 101.521ZM1197.21 101.183C1197.35 100.572 1197.37 99.9905 1197.3 99.4393C1197.24 98.8822 1197.07 98.3709 1196.81 97.9057C1196.54 97.4405 1196.18 97.0428 1195.72 96.7126C1195.27 96.3841 1194.73 96.1524 1194.11 96.0173C1193.48 95.8823 1192.89 95.8712 1192.34 95.984C1191.8 96.0984 1191.31 96.3134 1190.88 96.6287C1190.46 96.9441 1190.09 97.3417 1189.8 97.8215C1189.51 98.2953 1189.3 98.8377 1189.17 99.4487C1189.04 100.06 1189.01 100.644 1189.07 101.201C1189.14 101.752 1189.31 102.252 1189.57 102.7C1189.84 103.148 1190.19 103.533 1190.64 103.854C1191.1 104.176 1191.64 104.405 1192.27 104.54C1192.9 104.675 1193.48 104.689 1194.02 104.583C1194.57 104.477 1195.06 104.276 1195.5 103.977C1195.93 103.679 1196.29 103.293 1196.57 102.819C1196.87 102.339 1197.08 101.794 1197.21 101.183ZM1226.1 95.422L1221.75 110.341L1219.86 110.142L1219.1 102.555L1216.74 109.812L1214.88 109.615L1213.77 94.12L1215.46 94.2985L1216.28 107.041L1218.67 99.033L1220.24 99.1992L1220.92 107.531L1224.38 95.2411L1226.1 95.422ZM1237.61 105.917C1237.57 106.767 1237.39 107.533 1237.09 108.215C1236.79 108.897 1236.38 109.476 1235.85 109.951C1235.32 110.419 1234.7 110.777 1233.99 111.025C1233.27 111.272 1232.48 111.376 1231.61 111.335C1230.76 111.294 1229.99 111.117 1229.31 110.803C1228.62 110.489 1228.03 110.074 1227.55 109.558C1227.07 109.035 1226.71 108.42 1226.47 107.712C1226.24 107.005 1226.14 106.227 1226.18 105.376C1226.22 104.549 1226.39 103.786 1226.69 103.089C1227 102.384 1227.41 101.793 1227.94 101.318C1228.47 100.834 1229.09 100.469 1229.81 100.221C1230.52 99.9656 1231.31 99.858 1232.16 99.8983C1233.02 99.9393 1233.8 100.121 1234.49 100.443C1235.18 100.757 1235.76 101.179 1236.24 101.71C1236.72 102.234 1237.08 102.861 1237.31 103.591C1237.55 104.314 1237.65 105.089 1237.61 105.917ZM1236 105.841C1236.03 105.216 1235.97 104.638 1235.8 104.107C1235.65 103.568 1235.4 103.09 1235.06 102.676C1234.72 102.261 1234.3 101.928 1233.8 101.677C1233.3 101.427 1232.73 101.286 1232.09 101.256C1231.45 101.226 1230.87 101.312 1230.34 101.514C1229.83 101.716 1229.38 102.008 1229.01 102.389C1228.64 102.77 1228.35 103.222 1228.14 103.744C1227.93 104.258 1227.82 104.828 1227.79 105.452C1227.76 106.076 1227.82 106.658 1227.97 107.197C1228.14 107.729 1228.38 108.194 1228.72 108.593C1229.05 108.992 1229.47 109.313 1229.96 109.555C1230.47 109.798 1231.04 109.935 1231.68 109.965C1232.32 109.995 1232.9 109.913 1233.42 109.719C1233.94 109.525 1234.39 109.245 1234.77 108.88C1235.15 108.514 1235.44 108.074 1235.64 107.56C1235.85 107.038 1235.97 106.465 1236 105.841ZM1249.69 101.922C1249.11 101.64 1248.42 101.504 1247.62 101.514C1246.97 101.523 1246.38 101.671 1245.87 101.958C1245.36 102.246 1244.93 102.622 1244.57 103.088C1244.22 103.545 1243.95 104.072 1243.76 104.668C1243.58 105.257 1243.49 105.863 1243.5 106.488L1243.55 110.015L1246.02 109.984L1246.04 111.355L1239.49 111.437L1239.47 110.066L1241.94 110.035L1241.84 101.856L1239.37 101.887L1239.35 100.516L1243.43 100.465L1243.46 103.207C1244.17 101.198 1245.55 100.181 1247.61 100.155C1248.16 100.148 1248.64 100.177 1249.05 100.243C1249.46 100.308 1249.85 100.428 1250.2 100.603L1249.69 101.922ZM1261.53 110.603L1255 111.104L1254.89 109.737L1257.36 109.548L1256.4 97.0335L1253.93 97.2227L1253.83 95.8556L1257.9 95.5427L1258.97 109.424L1261.42 109.236L1261.53 110.603ZM1276.37 108.829L1274.77 109.051L1274.63 108.053C1274.23 108.526 1273.77 108.909 1273.25 109.202C1272.74 109.494 1272.2 109.679 1271.63 109.759C1270.77 109.878 1269.98 109.845 1269.26 109.661C1268.54 109.477 1267.91 109.17 1267.37 108.74C1266.83 108.302 1266.39 107.752 1266.04 107.091C1265.7 106.429 1265.47 105.684 1265.35 104.856C1265.24 104.035 1265.26 103.26 1265.41 102.529C1265.57 101.789 1265.84 101.14 1266.24 100.58C1266.64 100.012 1267.16 99.541 1267.8 99.168C1268.45 98.7872 1269.2 98.5373 1270.05 98.4182C1270.63 98.3388 1271.2 98.366 1271.77 98.4998C1272.35 98.6248 1272.89 98.8607 1273.41 99.2075L1272.86 95.2609L1270.7 95.5603L1270.51 94.2022L1274.27 93.6807L1276.37 108.829ZM1273.62 100.751C1273.09 100.312 1272.54 100.017 1271.97 99.8679C1271.41 99.7175 1270.82 99.6842 1270.22 99.7679C1269.58 99.8559 1269.04 100.046 1268.58 100.338C1268.13 100.629 1267.77 100.99 1267.5 101.422C1267.23 101.854 1267.05 102.345 1266.95 102.895C1266.86 103.436 1266.86 104.016 1266.94 104.635C1267.03 105.254 1267.19 105.816 1267.42 106.319C1267.67 106.814 1267.98 107.233 1268.35 107.574C1268.73 107.916 1269.18 108.166 1269.69 108.324C1270.21 108.481 1270.78 108.515 1271.42 108.427C1272.64 108.258 1273.64 107.626 1274.42 106.532L1273.62 100.751ZM1285.76 107.126L1283.62 107.556L1283.19 105.419L1285.33 104.989L1285.76 107.126ZM1298.74 104.106L1296.64 104.666L1296.08 102.559L1298.18 102L1298.74 104.106ZM1311.54 100.336L1309.46 101.011L1308.79 98.9383L1310.86 98.2636L1311.54 100.336ZM1338.43 89.9196L1332.43 92.5632L1331.88 91.3087L1334.14 90.3109L1329.08 78.8275L1326.82 79.8253L1326.26 78.5708L1332.26 75.9272L1332.81 77.1817L1330.56 78.1748L1335.62 89.6583L1337.87 88.6651L1338.43 89.9196ZM1337.88 73.3644L1341.25 71.7166L1342.37 74.0114C1342.61 74.4956 1342.76 74.9913 1342.83 75.4985C1342.9 75.9953 1342.87 76.4737 1342.75 76.9339C1342.62 77.394 1342.4 77.8253 1342.08 78.2278C1341.75 78.6198 1341.31 78.9531 1340.75 79.2278L1340.15 78.0067C1341.58 77.3098 1341.91 76.1789 1341.14 74.6139L1340.98 74.2876L1338.85 75.3329L1337.88 73.3644ZM1364.29 77.0952L1362.87 77.8452L1359.2 70.9031C1358.91 70.3505 1358.58 69.9733 1358.23 69.7716C1357.88 69.5698 1357.52 69.5657 1357.15 69.7591C1356.61 70.0438 1356.36 70.5369 1356.41 71.2383C1356.46 71.9361 1356.75 72.7962 1357.29 73.8185L1360.17 79.2686L1358.74 80.0241L1355.07 73.082C1354.78 72.5294 1354.46 72.154 1354.1 71.9559C1353.74 71.7542 1353.38 71.75 1353.01 71.9435C1352.68 72.1223 1352.46 72.3648 1352.37 72.671C1352.27 72.9771 1352.25 73.3167 1352.29 73.6896C1352.35 74.0588 1352.46 74.4425 1352.62 74.8407C1352.79 75.2388 1352.97 75.6244 1353.17 75.9974L1356.05 81.4475L1354.63 82.1975L1349.53 72.5407L1350.95 71.7907L1351.69 73.1895C1351.41 71.9481 1351.77 71.0646 1352.76 70.539C1353.71 70.039 1354.6 70.1727 1355.44 70.9402C1355.41 69.7457 1355.82 68.9222 1356.68 68.4696C1357.5 68.0353 1358.23 67.963 1358.87 68.2527C1359.51 68.5318 1360.1 69.1653 1360.62 70.1531L1364.29 77.0952ZM1385.24 60.1279C1385.98 61.3892 1386.12 62.572 1385.67 63.6763C1385.22 64.7806 1384.25 65.7723 1382.74 66.6515L1378.54 69.1115L1370.82 55.9086L1374.79 53.5845C1375.35 53.2612 1375.92 52.9911 1376.51 52.7741C1377.09 52.5503 1377.66 52.441 1378.23 52.4461C1378.8 52.4473 1379.35 52.5936 1379.87 52.885C1380.39 53.1696 1380.86 53.6694 1381.27 54.3844C1382.08 55.7536 1381.94 57.0879 1380.86 58.3873C1382.83 57.9222 1384.29 58.5024 1385.24 60.1279ZM1379.89 55.1946C1379.62 54.7292 1379.3 54.4053 1378.93 54.2228C1378.56 54.0404 1378.18 53.9603 1377.78 53.9826C1377.38 53.9981 1376.99 54.0853 1376.59 54.2443C1376.19 54.3965 1375.82 54.5711 1375.49 54.7682L1372.9 56.2821L1375.52 60.7641L1378.11 59.2502C1378.48 59.0294 1378.84 58.7856 1379.17 58.5187C1379.5 58.2451 1379.76 57.9426 1379.96 57.6112C1380.15 57.2731 1380.25 56.9038 1380.27 56.5034C1380.29 56.103 1380.16 55.6667 1379.89 55.1946ZM1383.86 60.9381C1383.32 60.0275 1382.64 59.54 1381.81 59.4755C1380.98 59.4003 1380.04 59.6643 1379.01 60.2675L1376.19 61.9174L1379.23 67.1177L1382.05 65.4677C1383.08 64.8646 1383.77 64.1756 1384.1 63.401C1384.44 62.6156 1384.36 61.7947 1383.86 60.9381ZM1388.45 57.6352C1389.14 58.5709 1389.97 59.1498 1390.94 59.3718C1391.92 59.5939 1392.91 59.4087 1393.91 58.8163C1394.62 58.3988 1395.16 57.8825 1395.54 57.2673C1395.92 56.6521 1396.12 56.0478 1396.14 55.4543L1397.5 55.5476C1397.42 56.485 1397.16 57.3214 1396.71 58.0567C1396.26 58.7854 1395.56 59.432 1394.61 59.9966C1393.88 60.4259 1393.14 60.6985 1392.4 60.8142C1391.65 60.93 1390.92 60.9038 1390.23 60.7358C1389.53 60.5571 1388.88 60.2401 1388.29 59.7847C1387.69 59.3293 1387.18 58.735 1386.74 58.002C1386.32 57.2891 1386.04 56.5698 1385.9 55.8441C1385.77 55.1076 1385.78 54.3995 1385.93 53.7199C1386.08 53.0295 1386.38 52.3883 1386.83 51.7963C1387.28 51.1976 1387.87 50.6816 1388.6 50.2482C1389.4 49.7751 1390.18 49.4961 1390.94 49.4112C1391.69 49.3264 1392.41 49.4054 1393.09 49.6483C1393.77 49.8805 1394.4 50.2705 1394.98 50.8182C1395.57 51.362 1396.09 52.034 1396.57 52.8343L1388.45 57.6352ZM1394.41 52.5188C1393.64 51.5813 1392.82 51.0353 1391.93 50.8808C1391.04 50.7263 1390.16 50.9055 1389.29 51.4184C1388.85 51.6808 1388.48 51.9973 1388.19 52.3679C1387.9 52.7318 1387.69 53.1337 1387.56 53.5737C1387.43 54.0137 1387.38 54.483 1387.41 54.9816C1387.44 55.4735 1387.56 55.9606 1387.77 56.443L1394.41 52.5188ZM1405.24 42.5711C1404.59 42.6124 1403.92 42.8336 1403.24 43.2348C1402.67 43.5652 1402.23 43.9817 1401.93 44.4843C1401.63 44.9869 1401.43 45.5278 1401.36 46.107C1401.27 46.6794 1401.3 47.2713 1401.43 47.8827C1401.56 48.4833 1401.79 49.0536 1402.1 49.5937L1403.88 52.6414L1406.01 51.3965L1406.7 52.5812L1401.04 55.8792L1400.35 54.6945L1402.49 53.4496L1398.37 46.3822L1396.23 47.6271L1395.54 46.4424L1399.07 44.3893L1400.45 46.7586C1400.08 44.6608 1400.78 43.0947 1402.55 42.0603C1403.03 41.781 1403.46 41.5695 1403.85 41.4257C1404.24 41.278 1404.64 41.1933 1405.03 41.1716L1405.24 42.5711ZM1421.65 44.2037L1420.23 44.9787L1417 39.0645C1416.53 38.2074 1415.99 37.6434 1415.36 37.3724C1414.73 37.1015 1414 37.1925 1413.17 37.6455C1412.65 37.9301 1412.24 38.3084 1411.95 38.7805C1411.66 39.2489 1411.48 39.7659 1411.41 40.3314C1411.33 40.8901 1411.35 41.4731 1411.48 42.0803C1411.61 42.6769 1411.83 43.2564 1412.13 43.8187L1414.48 48.118L1413.07 48.8874L1407.84 39.3013L1409.25 38.532L1410.56 40.9387C1410.28 38.8127 1411.01 37.2742 1412.76 36.3232C1415.11 35.0353 1417 35.6908 1418.42 38.2895L1421.65 44.2037ZM1424.42 28.1219L1422.46 29.0777L1421.5 27.1081L1423.46 26.1524L1424.42 28.1219ZM1432.12 38.9411L1426.24 41.8135L1425.64 40.5812L1427.86 39.497L1424.27 32.1456L1422.05 33.2298L1421.45 31.9975L1425.12 30.2042L1429.31 38.7879L1431.52 37.7089L1432.12 38.9411ZM1445.31 31.1752C1445.14 32.0119 1444.76 32.7761 1444.17 33.4676C1443.58 34.1491 1442.77 34.6889 1441.74 35.0872C1440.95 35.395 1440.17 35.5464 1439.4 35.5412C1438.64 35.536 1437.93 35.3921 1437.27 35.1095C1436.62 34.8168 1436.04 34.3972 1435.53 33.8506C1435.02 33.304 1434.6 32.6337 1434.3 31.8397C1434 31.0676 1433.84 30.3072 1433.83 29.5584C1433.81 28.8023 1433.93 28.1051 1434.2 27.4666C1434.46 26.8208 1434.86 26.2426 1435.4 25.7318C1435.94 25.2109 1436.61 24.7979 1437.39 24.4929C1437.71 24.3714 1438.04 24.2836 1438.4 24.2293C1438.75 24.1751 1439.11 24.1679 1439.46 24.2079C1439.8 24.2406 1440.14 24.3174 1440.45 24.4382C1440.76 24.5518 1441.03 24.728 1441.26 24.9669L1440.69 23.4919L1442.03 22.9708L1443.61 27.0462L1442.27 27.5673C1442.09 27.1157 1441.85 26.7367 1441.54 26.4301C1441.23 26.1208 1440.89 25.8864 1440.5 25.7271C1440.11 25.5677 1439.69 25.4915 1439.24 25.4983C1438.79 25.4979 1438.34 25.5852 1437.88 25.7603C1437.27 25.9976 1436.78 26.3108 1436.4 26.7C1436.03 27.0863 1435.76 27.5209 1435.6 28.0038C1435.44 28.4866 1435.37 29.0067 1435.4 29.5642C1435.44 30.1115 1435.57 30.6766 1435.79 31.2593C1436.02 31.842 1436.32 32.3471 1436.68 32.7747C1437.05 33.1921 1437.48 33.5143 1437.95 33.7413C1438.43 33.9655 1438.95 34.0914 1439.5 34.119C1440.07 34.1438 1440.65 34.0404 1441.24 33.8088C1442 33.5151 1442.62 33.1045 1443.09 32.5771C1443.57 32.0496 1443.86 31.4775 1443.98 30.8608L1445.31 31.1752ZM1449.08 26.9584C1449.47 28.0526 1450.1 28.846 1450.97 29.3387C1451.85 29.8315 1452.85 29.9379 1453.98 29.6581C1454.77 29.461 1455.44 29.1224 1455.98 28.6423C1456.52 28.1622 1456.89 27.641 1457.08 27.0787L1458.36 27.5591C1458.01 28.4337 1457.52 29.1593 1456.88 29.7357C1456.24 30.3046 1455.38 30.7224 1454.3 30.989C1453.49 31.1918 1452.7 31.2412 1451.95 31.1372C1451.2 31.0332 1450.52 30.8005 1449.9 30.4391C1449.28 30.0682 1448.75 29.5791 1448.31 28.9718C1447.87 28.3644 1447.55 27.6475 1447.35 26.8209C1447.15 26.017 1447.08 25.2476 1447.16 24.5126C1447.24 23.7681 1447.45 23.0921 1447.79 22.4847C1448.14 21.8677 1448.61 21.3401 1449.21 20.9019C1449.81 20.4561 1450.52 20.1308 1451.35 19.9261C1452.25 19.7027 1453.08 19.6591 1453.83 19.7953C1454.58 19.9315 1455.24 20.2135 1455.82 20.6411C1456.41 21.0593 1456.9 21.6137 1457.3 22.3043C1457.7 22.993 1458.02 23.7886 1458.24 24.691L1449.08 26.9584ZM1456.26 23.7685C1455.8 22.6514 1455.16 21.8911 1454.35 21.4876C1453.55 21.0841 1452.65 21.0034 1451.68 21.2457C1451.17 21.3696 1450.73 21.5676 1450.35 21.8395C1449.96 22.104 1449.65 22.4282 1449.39 22.8123C1449.14 23.1964 1448.96 23.6318 1448.85 24.1185C1448.73 24.5976 1448.71 25.0987 1448.77 25.6218L1456.26 23.7685ZM1485.76 23.4501C1485.78 24.9109 1485.33 26.0119 1484.39 26.7532C1483.46 27.4944 1482.12 27.8787 1480.38 27.906L1475.5 27.9823L1475.26 12.6912L1479.87 12.6191C1480.51 12.6091 1481.14 12.6539 1481.76 12.7536C1482.38 12.8455 1482.93 13.0322 1483.42 13.3136C1483.92 13.5949 1484.32 13.991 1484.63 14.5018C1484.95 15.0048 1485.11 15.6703 1485.12 16.4983C1485.15 18.084 1484.37 19.1783 1482.79 19.7812C1484.74 20.3446 1485.73 21.5675 1485.76 23.4501ZM1483.52 16.5234C1483.51 15.9844 1483.39 15.5448 1483.16 15.2047C1482.92 14.8645 1482.63 14.6074 1482.28 14.4332C1481.92 14.2512 1481.53 14.1323 1481.11 14.0764C1480.69 14.0127 1480.28 13.9839 1479.89 13.99L1476.89 14.037L1476.97 19.2278L1479.97 19.1808C1480.41 19.1739 1480.84 19.136 1481.26 19.0669C1481.68 18.99 1482.06 18.8551 1482.39 18.6624C1482.72 18.4619 1483 18.1919 1483.21 17.8526C1483.42 17.5133 1483.53 17.0702 1483.52 16.5234ZM1484.15 23.4752C1484.14 22.4207 1483.78 21.6605 1483.09 21.1948C1482.4 20.7211 1481.46 20.4936 1480.26 20.5123L1476.99 20.5635L1477.09 26.5862L1480.36 26.535C1481.55 26.5163 1482.49 26.2517 1483.16 25.7411C1483.84 25.2226 1484.17 24.4673 1484.15 23.4752ZM1488.14 24.8319C1488.12 24.1448 1488.27 23.565 1488.6 23.0923C1488.93 22.6119 1489.36 22.2293 1489.91 21.9446C1490.46 21.6517 1491.09 21.4343 1491.81 21.2921C1492.53 21.1419 1493.27 21.0538 1494.01 21.0277C1494.3 21.0176 1494.56 21.0126 1494.79 21.0125C1495.02 21.0122 1495.24 21.0163 1495.45 21.0248C1495.66 21.0331 1495.87 21.0453 1496.08 21.0614C1496.29 21.0774 1496.52 21.0968 1496.77 21.1193L1496.75 20.3346C1496.73 19.8037 1496.6 19.3705 1496.35 19.0351C1496.11 18.6995 1495.82 18.4399 1495.48 18.2564C1495.14 18.0651 1494.78 17.9368 1494.41 17.8715C1494.04 17.7983 1493.73 17.7663 1493.47 17.7752C1492.66 17.8035 1491.91 17.9389 1491.23 18.1814C1490.55 18.424 1489.92 18.739 1489.34 19.1267L1488.57 17.9456C1489.21 17.5246 1489.94 17.175 1490.74 16.8969C1491.55 16.6107 1492.44 16.4507 1493.42 16.4167C1494.01 16.396 1494.6 16.4539 1495.17 16.5902C1495.76 16.7184 1496.28 16.9347 1496.74 17.2391C1497.22 17.5353 1497.6 17.9364 1497.89 18.4422C1498.18 18.948 1498.34 19.56 1498.36 20.2784L1498.61 27.4225L1496.99 27.4787L1496.93 25.6517C1496.66 26.0128 1496.35 26.3324 1496 26.6104C1495.66 26.888 1495.3 27.1196 1494.91 27.3049C1494.53 27.4825 1494.14 27.621 1493.76 27.7205C1493.37 27.8278 1493 27.8875 1492.65 27.8997C1491.2 27.95 1490.1 27.7109 1489.34 27.1824C1488.58 26.6538 1488.18 25.8703 1488.14 24.8319ZM1492.6 26.5295C1493.27 26.5061 1493.87 26.3876 1494.39 26.1739C1494.92 25.9521 1495.37 25.6864 1495.74 25.3767C1496.1 25.0669 1496.38 24.7407 1496.57 24.3979C1496.77 24.0548 1496.86 23.7466 1496.86 23.4733L1496.82 22.4427C1496.29 22.3828 1495.79 22.3574 1495.3 22.3665C1494.83 22.3752 1494.41 22.3857 1494.06 22.398C1493.48 22.4181 1492.93 22.4765 1492.39 22.5734C1491.86 22.6699 1491.4 22.8149 1491.01 23.0084C1490.62 23.194 1490.31 23.4316 1490.07 23.7211C1489.84 24.0106 1489.73 24.3622 1489.75 24.7761C1489.76 25.2367 1490 25.6545 1490.46 26.0294C1490.93 26.3962 1491.64 26.5629 1492.6 26.5295ZM1507.66 13.9832L1505.49 14.0639L1505.4 11.874L1507.58 11.7933L1507.66 13.9832ZM1510.33 26.9951L1503.78 27.2376L1503.73 25.8675L1506.2 25.7759L1505.9 17.6018L1503.43 17.6934L1503.38 16.3232L1507.46 16.1718L1507.82 25.716L1510.28 25.6249L1510.33 26.9951Z" fill="black"/>
</g>
<defs>
<clipPath id="clip0_133_39">
<rect width="1824.59" height="337" fill="white"/>
</clipPath>
</defs>
</svg>
